<svg fill="none" height="20" viewBox="0 0 20 20" width="20" xmlns="http://www.w3.org/2000/svg"><path d="m16.4163 3.5835c-.3333-.33334-.8333-.33334-1.1666 0l-5.25003 5.25-5.25-5.25c-.33333-.33334-.83333-.33334-1.16666 0-.33334.33333-.33334.83333 0 1.16666l5.25 5.25004-5.25 5.25c-.33334.3333-.33334.8333 0 1.1666.16666.1667.33333.25.58333.25s.41667-.0833.58333-.25l5.25-5.25 5.25003 5.25c.1666.1667.4166.25.5833.25s.4167-.0833.5833-.25c.3334-.3333.3334-.8333 0-1.1666l-5.25-5.25 5.25-5.25004c.3334-.33333.3334-.83333 0-1.16666z" fill="currentColor"/></svg>