<svg fill="none" height="16" viewBox="0 0 20 16" width="20" xmlns="http://www.w3.org/2000/svg"><path d="m16.9311 1.42437c-1.2967-.614731-2.6651-1.053106-4.071-1.304143-.0128-.002469-.026-.000706-.0378.005039s-.0215.015179-.0278.026961c-.1864.349465-.3557.708418-.5071 1.075493-1.5369-.237675-3.06616-.237675-4.5718 0-.13662-.33862-.33831-.752584-.51493-1.075493-.00654-.011547-.0163-.020782-.02802-.026493-.01171-.00571-.02482-.00763-.03761-.005507-1.40593.250536-2.77432.688931-4.0707 1.304143-.0112.00485-.02066.01319-.02705.02386-2.592673 4-3.303095 7.90225-2.9546448 11.75567.0009756.0095.0037988.0187.0083003.027.0045016.0084.0105885.0157.0178965.0215 1.710708 1.2975 3.367608 2.085 4.994088 2.6072.01265.0038.02615.0036.03868-.0006.01254-.0043.02351-.0124.03146-.0233.38565-.5421.72737-1.1162 1.02169-1.7163.004-.0083.00627-.0173.00667-.0265.00041-.0092-.00108-.0184-.00435-.0269-.00327-.0086-.00825-.0164-.01462-.0228s-.01399-.0114-.02235-.0146c-.53892-.213-1.06065-.4698-1.56028-.768-.00908-.0055-.0167-.0133-.02219-.0226s-.00869-.0198-.0093-.0307.00138-.0217.00579-.0316.0111-.0185.0195-.0251c.10479-.0811.20958-.1655.30986-.2507.00894-.0076.01974-.0124.03119-.0139.01145-.0016.02308.0002.0336.0051 3.27296 1.543 6.81632 1.543 10.05072 0 .0105-.0052.0223-.0073.0339-.0059s.0226.0062.0317.0138c.1003.0852.2051.1705.3107.2516.0084.0066.0152.0151.0196.025.0045.0099.0065.0207.006.0316-.0006.0108-.0037.0214-.0092.0307-.0054.0093-.013.0171-.022.0227-.4984.3006-1.0204.5572-1.5606.7671-.0083.0033-.0159.0084-.0223.015-.0063.0065-.0113.0144-.0145.023s-.0046.0179-.0041.0271c.0004.0093.0028.0183.0068.0266.2993.5968.6404 1.1702 1.0209 1.7154.0077.0112.0186.0197.0312.0241s.0262.0047.0389.0007c1.6341-.5222 3.2913-1.31 5.002-2.6072.0074-.0055.0135-.0127.0179-.0209.0045-.0082.0072-.0174.008-.0268.4169-4.45524-.6986-8.3252-2.9569-11.75618-.0056-.01113-.0149-.0198-.0262-.02444zm-10.24789 9.43333c-.98507 0-1.79719-.93413-1.79719-2.08176 0-1.14764.79634-2.08175 1.79719-2.08175 1.00929 0 1.81352.94255 1.79775 2.08175 0 1.14763-.79634 2.08176-1.79747 2.08176zm6.64589 0c-.9853 0-1.7972-.93413-1.7972-2.08176 0-1.14764.7961-2.08175 1.7972-2.08175 1.009 0 1.8133.94255 1.7972 2.08175 0 1.14763-.7882 2.08176-1.7972 2.08176z" fill="currentColor"/></svg>