<svg fill="none" height="32" viewBox="0 0 90 32" width="90" xmlns="http://www.w3.org/2000/svg"><g fill="currentColor"><path d="m89.4218 15.0127v1.9647c-29.8043 0-59.5905 0-89.41301094 0 0-.6367 0-1.2825 0-1.9647z"/><path d="m61.0293.805008c.8109 0 1.5763-.009095 2.3508.009096.1276 0 .2825.154626.3645.281966 1.1116 1.73727 2.2141 3.46545 3.2984 5.22092.6469 1.03691 1.2665 2.1011 1.8952 3.1471.0365.05458.082.10915.1732.24559 0-3.01067 0-5.93039 0-8.877385h2.1685v12.070005c-.82 0-1.6309.0091-2.4419-.0091-.082 0-.1913-.1365-.246-.2274-1.6674-2.656-3.3258-5.3119-4.9841-7.96784-.1367-.2183-.246-.44569-.4282-.77313v8.95017c-.7199 0-1.4215 0-2.1504 0 0-4.01122 0-8.00422 0-12.069992z"/><path d="m0 .722656c2.12302.081861 4.2096.018192 6.25973.272871 2.29615.281963 3.73579 1.719083 4.30067 3.983903.401 1.57355.3281 3.12892-.2733 4.6297-.75627 1.88277-2.2597 2.85607-4.2096 3.19257-.34625.0546-.69249.091-1.03874.091-1.66743.0091-3.33487 0-5.03876 0 0-4.02032 0-8.02242 0-12.170044zm2.29615 2.146584v1.85551 5.81215c0 .2092-.04556.4366.30068.4275.82005-.0182 1.64011.0182 2.45105-.0273 1.52165-.091 2.61505-.8186 3.08886-2.3103.35535-1.11877.34624-2.27392.03645-3.40178-.36447-1.29159-1.21186-2.17387-2.55128-2.3285-1.06607-.12734-2.16858-.02728-3.32576-.02728z"/><path d="m47.3078 6.84451c-.0274-1.86462.5102-3.52913 1.9225-4.81162 1.3668-1.237008 3.016-1.628122 4.811-1.473495 1.5672.136435 2.934.727655 3.9727 1.946475.8474.98233 1.2756 2.14658 1.4123 3.42907.164 1.51898-.0091 3.00157-.7563 4.35686-.7653 1.3734-1.9225 2.283-3.4624 2.665-1.8588.4639-3.6629.3274-5.2939-.7186-1.7494-1.1278-2.4966-2.856-2.6059-4.88434-.0092-.17281 0-.34563 0-.50935zm2.3508.00909c.082.55484.1093 1.11877.2642 1.64632.3827 1.37345 1.2392 2.31938 2.688 2.58318 1.4032.2547 2.6697-.0273 3.5809-1.20973 1.1025-1.41893 1.2118-4.02939.3098-5.59384-1.2483-2.19206-4.3372-2.12839-5.6493-.72766-.8747.93686-1.1298 2.07382-1.1936 3.30173z"/><path d="m50.0598 31.1663c-.8109 0-1.5399 0-2.2961 0 0-4.0293 0-8.0314 0-12.0608.1458-.0091.2642-.0273.3827-.0273 1.8223 0 3.6446-.0273 5.467.0091 1.1754.0182 2.287.3092 3.1435 1.1915 1.2301 1.2734 1.2848 4.1022-1.0752 5.0663 0 .0273 0 .0637.0183.0728 1.148.4457 1.5489 1.3279 1.6036 2.4922.0547 1.0824.2005 2.1557.3098 3.2744-.6105 0-1.3212.0091-2.0228-.0091-.0911 0-.2369-.1455-.2733-.2456-.1003-.3456-.1914-.7003-.2278-1.055-.0547-.6458-.0456-1.3007-.1094-1.9465-.0911-.9278-.6196-1.428-1.549-1.4644-1.1025-.0364-2.205-.0091-3.3713-.0091zm-.0273-6.5579c1.2392 0 2.4237.0636 3.5991-.0182 1.0387-.0728 1.5945-.8732 1.5581-1.9738-.0364-.9459-.6196-1.5463-1.6674-1.6099-.7199-.0455-1.4488-.0364-2.1777-.0364-.4192 0-.9659-.1092-1.2119.1091-.2096.191-.082.7641-.0911 1.1734-.0182.7731-.0091 1.5553-.0091 2.3558z"/><path d="m78.5883 19.1058v2.001c-2.205 0-4.4009 0-6.6242 0v2.8652h5.9864v1.9737c-.1914 0-.3645 0-.5376 0-1.6674 0-3.3349.0091-5.0114-.0091-.3736 0-.5012.1092-.4921.4912.0274.8914.0091 1.7827.0091 2.7196h6.6151v2.0101c-2.9704 0-5.9226 0-8.893 0 0-4.0202 0-8.0314 0-12.0608 2.9887.0091 5.95.0091 8.9477.0091z"/><path d="m31.9819 8.93675h2.1959c.0274.06367.0456.10914.0547.14553.0729 1.64632 1.2118 2.18292 2.4601 2.22842.6379.0273 1.3121-.0273 1.9226-.2001.8565-.2456 1.2392-1.0187 1.0661-1.90098-.1003-.51846-.4647-.82771-.9385-.95505-.8383-.24558-1.713-.39111-2.5513-.64579s-1.6948-.50026-2.451-.90957c-1.1208-.60941-1.5581-1.6827-1.4853-2.9379.0729-1.2734.7381-2.20116 1.9044-2.70142 1.8406-.782227 3.6993-.718557 5.5308.02729 1.2847.52755 2.0866 1.8919 2.0228 3.32902-.7198 0-1.4397 0-2.1595 0-.2369-1.83733-1.3941-2.01015-2.8975-2.03744-.3463-.00909-.6925.08187-1.0296.17282-.6014.16372-.9476.59122-1.0114 1.20063-.0638.61851.1913 1.19153.7927 1.39164.8838.30016 1.795.50026 2.7062.72765 1.0934.27287 2.2141.47298 3.0433 1.30978.3462.34564.6925.80952.8018 1.2734.4465 1.81912-.0911 3.48362-2.0137 4.22952-1.9681.764-3.9909.7458-5.9226-.1638-1.3941-.6457-2.1959-2.1283-2.041-3.58365z"/><path d="m33.8225 22.6538c-.2369-1.328-.6651-1.7737-1.9863-1.9647-.8018-.1182-1.6128-.1364-2.3417.3275-.7927.4911-.8109 1.7463-.0456 2.2739.7472.5184 1.6584.5548 2.4966.7913.9568.2638 1.9499.4821 2.8429.9005 1.2392.5821 1.7039 1.7009 1.6036 3.047-.1002 1.3462-.7744 2.3376-1.9954 2.8561-1.9408.8277-3.9363.8095-5.8862.0091-1.4669-.6004-2.3599-2.0557-2.2232-3.6838h2.1777c.0273.1274.0729.2365.082.3547.0546 1.0733.8383 1.7828 1.9863 1.9556.8201.1274 1.631.1274 2.4237-.1546.7199-.2547 1.1481-.9733 1.057-1.7191-.082-.664-.5467-1.0187-1.1207-1.1824-.9112-.2638-1.8588-.4184-2.7791-.6731-.6652-.191-1.3485-.3911-1.9499-.7186-1.2483-.6821-1.7403-1.8191-1.6037-3.2017.1185-1.2733.8292-2.1556 1.9955-2.5922 1.959-.7368 3.9271-.7186 5.8041.3001 1.1754.6367 1.6037 1.7464 1.6857 3.0562-.7563.0182-1.4761.0182-2.2233.0182z"/><path d="m67.4993 25.9643c-2.0137 0-4 0-6.0046 0v3.1835h6.606v1.9919c-2.9522 0-5.9226 0-8.9112 0 0-4.0021 0-7.9951 0-12.0245h8.9294v1.992c-2.205 0-4.4009 0-6.6151 0v2.856h6.0046c-.0091.6731-.0091 1.2916-.0091 2.0011z"/><path d="m15.6445.804811c.7654 0 1.4852-.009096 2.2142.009095.1093 0 .2824.163722.3189.281964 1.0023 2.89243 1.9954 5.79395 2.9886 8.69547.1002.30016.1731.60936.2916 1.04596.2004-.6639.3371-1.20968.5194-1.73723.8929-2.64684 1.795-5.29369 2.6788-7.94053.0911-.263773.2187-.382016.5194-.372921.6378.027287 1.2756.009096 1.9772.009096-.0729.245585-.1185.445685-.1914.636695-1.3394 3.69285-2.6879 7.38569-4.0091 11.07849-.1093.3093-.2551.4093-.5831.4003-.6105-.0273-1.2119-.0273-1.8224 0-.3462.0181-.5102-.091-.6287-.4184-.9932-2.73785-2.0046-5.47564-3.016-8.21344-.3826-1.046-.7744-2.09201-1.1663-3.14711-.0273-.08186-.0455-.181909-.0911-.327439z"/><path d="m89.4135 19.1055v2.001c-1.2939 0-2.5604 0-3.8816 0v10.0507c-.8019 0-1.5581 0-2.36 0 0-3.3381 0-6.6489 0-10.0234-1.312 0-2.5786 0-3.8633 0 0-.7095 0-1.3553 0-2.0283z"/><path d="m46.4962 21.1163c-1.2757 0-2.5422 0-3.8543 0v10.0325c-.7836 0-1.5308 0-2.3144 0 0-3.3199 0-6.6398 0-10.0143-1.312 0-2.5968 0-3.8998 0 0-.7095 0-1.3553 0-2.0193h10.0685z"/><path d="m30.4697 12.8936c-.7472 0-1.4761 0-2.2324 0 0-4.01123 0-8.01332 0-12.051803h2.2324z"/><path d="m43.5176.804916c.6925 0 1.3303.009096 1.9681 0 .3827-.009095.3098.254684.3098.463884v6.53979 4.53871.5276c-.7745 0-1.5034 0-2.2688 0-.0091-4.01121-.0091-8.01331-.0091-12.069984z"/><path d="m14.5338 12.8932c-.738 0-1.4396 0-2.1959 0 0-4.02029 0-8.03148 0-12.069958h2.1959z"/></g></svg>