<svg fill="none" height="40" viewBox="0 0 31 40" width="31" xmlns="http://www.w3.org/2000/svg"><path d="m13.888 7.91266c0-4.79335-2.759-7.91266-7.88433-7.91266h-6.00367v15.8201h6.00367c5.12533 0 7.88433-3.0881 7.88433-7.90744zm-10.90683 5.31844v-10.63167h2.98116c3.04834 0 4.84637 1.8196 4.84637 5.31843 0 3.49884-1.78253 5.31844-4.84637 5.31844zm22.80563 17.229-1.3691-.2651c-2.3405-.4887-3.1-1.0398-3.1-2.3343s.9248-1.9548 2.821-1.9548c2.4955 0 3.3583.9566 3.472 2.6618h2.8881c-.1085-2.9945-1.9685-5.0689-6.386-5.0689-3.7768 0-5.828 1.83-5.828 4.4347 0 2.8645 2.0099 4.2214 5.0582 4.7985l1.3227.2651c2.4128.5199 3.224 1.0398 3.224 2.2875 0 1.4921-1.1264 2.2927-3.1827 2.2927-2.201 0-3.8388-.6706-3.8853-3.1557h-2.9192c0 3.6392 2.5368 5.5784 6.7167 5.5784 3.9473 0 6.3808-1.7364 6.3808-4.8765 0-2.4851-1.5035-3.9304-5.2132-4.6634zm4.619-11.9574h-30.4058v2.693h30.4058z" fill="currentColor"/></svg>