<svg fill="none" height="34" viewBox="0 0 142 34" width="142" xmlns="http://www.w3.org/2000/svg"><path d="m72.5363 23.8809c-.2839.4412-.4233.7714-.4208 1.0294.0051.4025.2484-.2219.7807-1.1068.2458-.5856.1748-.5108-.3599.0774zm34.5827-3.795c.018-.0155.038-.031.056-.0491h-.056zm-37.9206 8.3666.3523-.7353c.2509-.0025.74-1.7646 1.1304-2.278 0-.1471-.109-.0361-.3549.3689l-.7096 1.1042-.2814.7353c-.3877.6991-.6716 1.2151-.5626 1.3235.218.2141.3599.0309.4258-.5186zm4.5417-6.5581c-.1774.1857-.2484.3328-.1394.4411.1065 0 .4258-.4798.4233-.7352-.0329-.0362-.1394.0361-.2839.2941zm45.2399-11.5477c0 .0335-.033.0671-.066.0671h-.066c.069.0671.135.0671.201-.0026.23-.1032.164-.0697-.069-.0645zm-45.8735 12.7989c0 .0362.0355.0362.1445-.0748.1064-.147.1774-.1857.0684-.2941-.0025-.1083-.2154.258-.2129.3689zm39.6135-3.4312c.233-.2735.231-.5109.33-.6141-.003-.1032.164-.2399.263-.4798.231-.2735.297-.3767.396-.614l.195-.4773c.101-.1032.099-.2735.197-.2735 0-.0671.099-.1703.267-.2735.164-.1032.263-.2399.263-.4076.132-.2064.096-.3405-.071-.4076-.134-.0671-.233-.031-.266.0696 0 .0336-.066.0671-.2.1394 0 .1006-.099.1702-.198.4076-.099.1032-.096.2735-.198.2735l.003.2708c0 .1032-.033.1032-.066.0671-.101-.1006-.395.4128-.659.9572-.099.2373-.165.2399-.263.4798-.132.1368-.132.2374 0 .1342.098-.1032.167-.0026.068.1341-.099.1032-.132.1032-.132.0697-.101 0-.167.0361-.266.1393 0 .1032-.132.1703-.132.2735-.099.1367-.033.1703.069.0671.099-.1032.131-.0697.066.1341-.229.3767.073.3044.334-.0696zm1.711-3.0753c.101 0 .101.0335.002.1342-.101.1031-.033.1367-.131.1367v-.0671-.1341c-.005-.0336.028-.0671.129-.0697zm-1.386 1.8498c.098-.1032.167-.0697.068.0671l-.132.2064c-.033 0-.066-.0336-.068-.1342-.003-.1058.033-.1393.132-.1393zm-4.638-3.6274c-.003-.1032-.102 0 0 0zm-34.8113 6.6691c.1064-.1109.1774-.0387.0709-.147 0-.0362-.038-.0723-.0735-.0723 0 .0723-.7096 1.0294-.6361 1.1042 0 .1109-.1064.258-.2839.4412-.1064.258-.2838.405-.2838.516-.1065.147-.033.258-.142.147v.0723c-.1064.1109-.1419.1857-.1393.2218-.1065.2941-.2484.4773-.3523.7353-.3903.6992-.5323.8462-.4233.9572.109.1083 0 .0361-.1419.147-.1065.1109-.142.1858-.142.2219 0 .1109-.0709.2193-.2128.2941-.109.0387-.142.1496-.071.2941.0735.1083-.033.3302-.2813.5882-.2129.3328-.3194.4799-.2839.516.0735.1084.038.1832-.1419.2941-.1065.111-.2839.4051-.2839.516-.071.1471-.1064.2193-.1419.2193 0-.111-.4942.8462-.4942 1.0294 0 .1109-.0355.1831-.142.2941l-.2838.516-.1394.2941.0684-.3664.0684-.2915-.2838.4412c-.2839.5882-.3878.7713-.2738 1.6124.1166.8772.3321.8746.441 1.1661l.5804.5805c.3979.289.3219-.0052.4309-.0052.109-.0025.0355-.1109-.147-.2915-.2535-.2915-.2914-.3276-.2965-.8772-.0051-.6965.1673-1.5376.4131-2.1258.3523-.5521 1.0568-2.2058 1.0568-2.2781.1445-.0025.7401-1.6537.6337-1.4705-.1065.1109-.3549.405-.6387.9571-.2484.258-.3194.4773-.5677.8849 0 .0362.0355.0362.1419-.0748.2484-.258.2509-.2218.1445.0723-.1065.258-.3194.405-.4284.2966-.0709-.0722.033-.4024.2788-.9545.3168-.5882.4233-.8823.3523-.8798 0-.0722.1065-.147.2864-.2218.2509-.1497.2484-.258.3574-.369 0-.1109-.038-.147-.0735-.147-.1065.1109.1039-.4773.2103-.6605.2839-.4024.2484-.3663.3599-.0748l.147.2915-.0025-.2915c-.0026-.1832.0329-.2915.1394-.2941.109-.0026.1444-.0748.1419-.2219.071-.0748 0-.0361-.2154.0748l-.1774.1497-.0355.0361-.0025-.1832c.0329-.2554.4562-1.0655 1.3432-2.4277.2839-.5882.6032-.9932.4942-1.1042.0026-.0412.0406-.1161.0761-.1522zm-4.5164 9.556-.1445.0026c0-.0361.0329-.111.071-.1471.0354-.0387.1064-.0748.1444-.0748 0 .1084-.0355.1832-.0709.2193zm.631-1.6899-.1419.2942.0685-.2942.1393-.294c.1116-.1084.0406.0386-.0659.294zm-27.0579-17.5511c-2.1745 0-3.1782 1.4138-3.1782 3.1501v6.3337c0 1.7363 1.0037 3.15 3.1782 3.15 2.1746 0 3.1783-1.4137 3.1783-3.15v-6.3337c0-1.7363-1.0037-3.1501-3.1783-3.1501zm1.1051 9.4322c0 .9184-.2662 1.3622-1.1051 1.3622-.8363 0-1.105-.4438-1.105-1.3622v-6.2305c0-.9185.2687-1.3622 1.105-1.3622.8364 0 1.1051.4437 1.1051 1.3622zm-14.1677-9.2619h-2.0732l-2.1745 4.5458h-.033v-4.5458h-2.0732v12.2933h2.0732v-4.3575l.735-1.3622h.033l1.6905 5.7197h2.1086l-2.5243-7.714zm-10.8551-.1703c-2.1745 0-3.1782 1.4138-3.1782 3.1501v6.3337c0 1.7363 1.0037 3.15 3.1782 3.15 2.0732 0 3.0769-1.4137 3.0769-3.15v-1.4138h-2.0732v1.4809c0 .7997-.2509 1.2435-1.0037 1.2435-.8363 0-1.105-.4438-1.105-1.3622v-6.2305c0-.9185.2687-1.3622 1.105-1.3622.5348 0 1.0037.4437 1.0037 1.4809v.9545h2.0732v-.9029c0-1.8395-1.0037-3.372-3.0769-3.372zm-6.6757 9.4502c0 .903-.3523 1.3442-1.1051 1.3442-.7527 0-1.10499-.4438-1.10499-1.3442v-9.2799h-2.07319v9.1948c0 2.1104 1.20388 3.2687 3.17818 3.2687 1.9744 0 3.1783-1.1583 3.1783-3.2687v-9.1948h-2.0732zm-8.98216-9.2799h-3.07684v12.2933h3.07684c2.14162 0 3.27705-1.1919 3.27705-3.7125v-4.8683c.00254-2.5206-1.13543-3.7125-3.27705-3.7125zm1.20387 8.8362c0 1.2951-.38524 1.7208-1.48773 1.7208h-.71979v-8.8181h.71979c1.10503 0 1.48773.4257 1.48773 1.7208zm67.12769 5.5287c.0735.1445.1445.1445.2155-.0025.1064-.111.0354-.0362-.0735-.1471-.18.0026-.2509.0413-.142.1496zm-39.5933-11.4857c0-.7662.3675-1.21 1.0366-1.21.4689 0 1.0214.307 1.105 1.3622l1.9743-.2219c-.185-1.7363-1.1886-2.9798-2.8766-2.9798-2.0402 0-3.2111 1.1068-3.2111 3.065 0 3.5241 4.2148 4.1717 4.2148 6.6071 0 .7327-.4841 1.1248-1.2039 1.1248-.6691 0-1.1532-.614-1.2368-1.8549l-1.9743.2889c.0836 1.8395 1.1886 3.4055 3.1097 3.4055 1.9414 0 3.2796-1.1248 3.2796-3.15-.0025-3.3384-4.2173-4.3446-4.2173-6.4369zm25.8261-2.8792-2.2252 12.2933h2.0073l.3675-2.7244h2.2759l.3675 2.7244h2.0073l-2.2252-12.2933zm.4512 7.7294.8186-5.2785h.033l.8186 5.2785zm53.9636.2451c-.165.1703-.165.2735-.063.3406.099 0 .164-.0362.266-.1394.066-.1702.033-.2038-.069-.1341-.101 0-.101-.0336-.065-.0671-.003-.0335-.036-.0335-.069 0zm-.593.9571c-.099.1032-.099.2374 0 .1368.033-.0336.066-.1032.066-.1368 0-.1006-.066-.1006-.066 0zm8.354-10.4744.167-.0026c.033-.0335.033-.067-.069-.067-.032.0361-.065.0696-.098.0696zm-72.562 13.8361h2.0732v-5.4488h2.7778v-1.8395h-2.7778v-3.1681h3.713v-1.8395h-5.7862zm21.3782 5.2449-.2839.5134c-.1039.4025-.1774.4412.0735.1471l.2814-.5882c.1089-.111.0709-.1832-.071-.0723zm3.0996-7.056c.0355 0 .071-.0361.071-.1471.1065-.1109.0355-.1109-.071 0-.1064.1135-.1064.1497 0 .1471zm-.4257.5185c-.071.2554-.104.3664-.0685.3664.1065 0 .4258-.6269.4258-.7353-.038-.0387-.1444.1109-.3573.3689zm61.0479-2.8688c0-.0026 0-.0052-.003-.0052-.04 0-.03.0052.003.0052zm-49.7316-2.0691c-.038-.0361.033-.0722.2155-.0748.1799-.0026.2509-.0387.2154-.0748-.0355-.0362.0355-.0723.2864-.0774.2889-.0026.8262-.191.9327-.4489-.0026-.1084-.0736-.2193-.218-.2916-.289-.1058-1.4421-.4979-1.5866-.3508l-.8617.0077c-.5398-.1058-.8997-.0645-1.0087-.0645l-.6463.0077c-.3954.0026-1.1126.0465-1.7969.1626-.6818.0077-1.2216.1212-1.2216.0103-.0355 0 0-.0722.0709-.2193.1065-.1109.1065-.1832.0685-.2193 0-.0361.0709-.0722.2154-.1496l.4258-.5883c1.8806-2.9462 5.9686-7.92284 7.4665-9.29278.6767-.5908.8566-.70432 1.143-.81526.3954-.00258 2.3343-.38698 3.6623-.39988l1.508-.15995 2.0124-.01806c.5398.10319.8997.06449 1.0087.06449l.5753-.00516.5018-.00515c.0355-.03612.109-.0387.1445-.00258 0 .03612.0355.03612.1419-.07481.251-.11094.6463-.1161.6463-.00517.0026.10836.0381.10836.1445 0 .071-.07482.18-.07482.3599-.00516.109.10835.1825.14447.2889.14447-.0025-.10836.2864-.1135.5754-.00515.2534.03354.3598.06965.3953.06965l.1775-.00258c.1089-.11094-.0381-.29153-.289-.28895-.1444-.07224-.2179-.10836-.2179-.14448-.109-.10835-.0355-.11093.0709 0h.1445c.0709-.07223.2509-.0748.5018-.00515.2534.10836.3244.03353.4308-.07741.071-.11093.142-.14705.2155-.07481.109.10836.1825.14448.218.14448.1064-.11094-.0736-.10835-.3625-.36376-.3979-.28895-.7223-.39474-1.5866-.49536-.6843-.10319-1.2621-.20897-1.5105-.20639-.109 0-.4334-.06966-.7198-.06708-.0735-.07223-.2534-.06965-.5043.00517-.033.0387-.071.0387-.071 0-.0025-.21929-1.0087-.13674-1.1506.01031.0025.10836-.071.11094-.071 0-.0355-.03612-.109-.07223-.1445-.07223-.1064.11094-.1419.11094-.1445 0 0-.07224-1.1151-.13673-1.2215.08514-.0355.03612-.071.0387-.071 0-.0026-.10835-.109-.14707-.2889-.14449-.3599.00258-.4689.04129-.2864.14964-.1065.00258-.1445-.03353-.1445-.07223 0-.03612-.0355-.07224-.1445-.07224-.1419.07482-.2864.07482-.4308.00258-.18-.03354-.3244-.03354-.4309.07739-.1064.11094-.1419.11094-.1445.00259-.0709-.07224-.3244-.07224-.7197.00516-.6818.1161-1.1481.12125-.8643-.13932.109 0 .4284-.36892 1.0011-.66819 1.2495-.89007 1.9642-1.48088 1.5689-1.4783-.2535.00258-.3979-.178-.147-.29152.1064 0 .1419-.038704.1419-.074823-.109-.108356-.18-.108348-.2154-.072229-.2509.110936-.3954-.105785-.2915-.363776.1064-.110936.0329-.219286-.2205-.363761-.3244-.216712-.6843-.1780115-1.0062.082559-.2509.110937-.6057.479864-1.1405.88749l-.9986.81524c-.109.11094-.1419.18576-.2863.2967l-1.1406.9623c-.5347.40763-.9631.88749-1.0695.88749-.1774.18576-2.5117.68109-3.3734.68883-.2154.11094-.4308.14964-.6463.15222-.109.11094-.2509.14964-.3598.0774-.109 0-.2864.07481-.5728.07739l-.7173.22704-2.4382.60628c-3.1554.87201-4.4834 1.06808-5.0942 1.07324-.4309.00258-.6843.04129-.7908.15222-.2509.11352-.2458.5521-.1368.66046.1089.10835.109.18059.0735.21928-.0355.0387 0 .07224.0735.14706.109.10836.1444.1806.147.29153.0025.11094.076.29153.2205.51082.2534.14447.3979.18059.4333.14189.1065-.11094.2484-.14963.36-.07739.0709 0 .3599-.0774.8617-.22704l1.1481-.22961c.3954-.00258 2.1162-.56758 2.5116-.75591.18-.00258 4.3771-1.17644 5.3072-1.36735l1.0062-.22962-.2129.29411-.4284.51599-.8541 1.10677c-.8186.88749-1.1734 1.43701-.6387 1.03197l.3549-.44374c.0709-.25799.1774-.36893.2838-.36893.3574-.36892 1.5334-1.5531 1.7083-1.91945.2483-.29411.5702-.55469.5727-.2967.109.10836-.2128.33024-.4942.73529-.3928.40762-.8186.84878-1.0695 1.25383l-1.067 1.25383c-.2864.29669-.7451 1.10423-1.2799 1.69503l-1.1355 1.4757-.4257.663c-.1065.258-.3549.4799-.6387.8849-.5348.5908-.6742 1.0294-1.4903 2.211-.5677.8823-.6007.9572-1.0695.9597-.3599.0026-2.1543.4231-3.087.6141l-1.4345.307c-.3928.1135-.7553.0438-.8617.1548-.0355.0361-.1065.0748-.2154.0748-.1065 0-.36-.0336-.6463.08l-1.0037.1573c-.1444 0-.2509.0387-.3599.0387-.0355.0361-.1064.0387-.1444.0387v.1471l.0025.2193c.1191 1.1326.6995 1.6408 1.3787 1.3777l.9327-.3019 2.7271-.6114.9327-.2271c.3599-.0025.6463-.0413.8617-.1548.2509-.0026-.6387 1.1042-1.6297 2.7244-.1749.4412-.849 1.4731-.849 1.6176-.2484.2967-.3878.6992-.4942 1.1042l-.2813.5882c.0354 0 .2129-.2218.5702-.6656.2459-.5495.3903-.6604.7781-1.2512.3903-.6992.6741-1.1765.9225-1.4732l.3194-.5882c.1064-.1109.1419-.1857.1774-.2941l.2838-.4412.142-.147c.0684-.258.1039-.3664.1393-.4025l.071-.1109.071-.0748c.2864-.258.3928-.3328.0025.3663-.3877.6992-.3168.8075-.2078.8075l.1064-.1109c.1065-.1109.142-.2193.2484-.4025.1065-.2218.3194-.4798.6412-.7378l.142-.111c.0354-.0361.0354-.0361.0709-.0361l.071-.0748c-.038-.0361-.109-.0361-.2154.0748-.1065.111-.0355 0 .0684-.2941.2484-.405.3548-.6604.3574-.3689 0 .0361.0354.0361.0709 0 .109 0 .1065-.0748.2154-.0748.251-.111 1.1836-.2658 2.1518-.387.5753-.1161.9707-.1187 1.0771-.2296.0355-.0361.1065-.0361.1445 0 .0026.1083.3954.1057.7908-.0078l1.1506-.0103c.2155-.0026.5018-.0774.8617-.227.0355 0 .071.0361.071.0722 0 .1109.0735.1445.2154.0723.1445-.0749.2154-.0749.2154-.0026 0 .0361.0355.0722.1445.0722s.109-.0387.0735-.0748zm12.8244-13.14722c-.1293-.05418-.2281-.07225-.2813-.07483.0709-.06708.2129-.06966.4232 0 .1749.03354.2813.06708.2535.06966zm1.2191-.2322c-.071.07482-.18.07482-.289.00516-.2534-.10835-.2534-.1806.1445-.07482.1445-.00258.1799.03354.1445.06966zm-2.3115-1.07582c.0355-.03612.109-.0387.1445-.00258.109 0 .109.03611.071.07223-.071.07223-.142.07224-.2155.00258-.0329 0-.0354-.03611 0-.07223zm-5.2438.34313c1.2571-.15737 1.688-.16254 2.5142-.17028.3954-.00258.6108-.04128.6463-.07998.2484-.25799.8617-.22703.8617-.07997 0 .03611-.109.07223-.3599.07739l-.2889.00258h-.0709c.038.03612.0734.03612.1444.03354.038.03612.1445.03612.3599.03354 1.1507.10062 1.7969.05677 2.0859.05419.2534-.00258.3598.06964.6462.06706.109.11094.3954.06966.5044.06966.6108-.15221 2.7372.55984 2.7372.55984-.2154.07482-.5398.0774-1.0087.00775-2.4128-.37925-2.5193-.37926-2.5193-.12127.0026.11094.2535.10837.5044-.00515.142-.14705.2155-.11093.218.14448.0025.18317-.071.21928-.2155.14962-.2889-.10835-.8262-.02838-1.0771.08256-.1065.11094-.7553.07998-1.5815.08772-.8288-.10319-1.4015-.06192-1.655-.05676l-.3599.00258c-.0735-.07224-.1445-.07223-.2154.00258 0 .07224-1.3661.08514-1.4371.15996-.1089-.10836-.3598-.06966-.6488-.06708l-.5753.00516c-.1445-.03612-.2155-.07224-.18-.07224h-.0354c-.142.14705-.2129.14705-.2155.00258-.0025-.10836 1.65-.19865 4.813-.33797.9707-.11867 1.9034-.12641 2.2987-.02321.18.07224.289.03354.2864-.07739-.0025-.25541-.1825-.3999-.2914-.28897-.071.07482-.18.07482-.3599.00517-.7198-.1032-1.0442-.17285-1.1507-.06192-.0709.07482-.2509.07482-.5043.00517-.3954-.10578-2.1569-.05419-2.2304-.0516v.07222c0 .03612.0381.07225.0735.07225.071.07224.1445.07223.2155-.00258.109 0 .1444.03612.1444.07224 0 .10836-.5373.26057-.9326.15479-.18-.07224-.3599-.06965-.5044.00258-.1065.00258-.18-.03353-.2889-.14189-.109-.29153-.0381-.33024-.1445-.07224-.0355.03869-.0355.11093 0 .14705-.0355 0-.1064.0387-.1419.07481-.2535.00258-.3244.03871-.5754.15223-.5398.00516-.8262.04385-.9352-.0645-.0354-.03612-.0354-.10836 0-.14706.0355-.03612.0355-.07224 0-.07224-.3472-.10836.1192-.22444 1.4497-.307zm2.2304.19864c.0354-.03869.109-.0387.1444-.00258.2535.10836.1825.25542-.0709.14706-.0355 0-.0735-.03612-.0735-.14448zm1.0771-.01031.2864-.00258c.1799-.00258.2535.03354.2155.07224-.142.14706-.2865.14963-.4309.00515zm1.2951.05933.071.07225c-.0355.03612-.1065.07223-.2154.07481-.1065-.10836-.071-.14448.1444-.14706zm.7198-.00516c-.0025-.11094.071-.07481.2154.06966.0355.03612.0001.07225-.1444.07483-.071-.07224-.1065-.10837-.071-.14449zm-6.9723.2838c0 .11093-.2864.25799-.2864.14964-.0025-.10836.0355-.03612.1419-.14706.1065-.11094.1445-.11352.1445-.00258zm-.3041-1.82658.0709-.07223-.2154.22187c-.1064-.00258-.071-.03871.1445-.14964zm-1.285 1.03713.4283-.37151c.2155-.11094.2864-.14963.2155-.07481-.1039.29411-.7477.77654-.8567.66818-.0735-.07481-.0025-.14705.2129-.22186zm-5.5175 2.17228c-.109 0-.1445.07481-.4309.07739-.1064.11094-.1799.11095-.2154.07483-.109-.10836.1774-.33024.2864-.22189.0355.03612.109.00001.2864-.07739l.2154-.00258c.038.0387-.0355.0774-.1419.14964zm.5018-.22187c-.109 0-.1445-.03613-.1445-.07225.1775-.0387.2864-.03868.3599-.00256.109.25541-.1064.18316-.2154.07481zm.6463-.07998c-.109.11094-.0355.14706-.1445.14706-.1444-.14448-.109-.2193.0684-.2193.1116-.00258.1116.03354.0761.07224zm-6.2145 12.57443-.1445.0026.071-.0722c-.0026-.1109.0329-.111.1445-.0026.038.0335.038.0697-.071.0722zm5.4567-1.0758h.071.0709c.038.0362.038.1084.0025.1471-.0354.0361-.0709 0-.1444-.0723-.0355-.0025-.0355-.0386 0-.0748zm-3.675-.8462-.3573.2967c-.0355 0 0-.0722.0709-.2193.2839-.258.5703-.6269.5703-.5185 0 .1109-.1065.2579-.2839.4411zm1.2064-1.8395-.2129.3664-.1419.147.1419-.2193c.104-.2915.3168-.5521.2129-.2941zm.6362-.8849c.0025.1084-.1774.1858-.2839.4412-.2484.405-.3928.3328-.1445-.0722.104-.258.2104-.369.3549-.369.2534-.258.3244-.258.0735 0zm5.4617-8.50593c.0355 0 .109 0 .1445-.03612s.109-.07481.1445-.07481c.038.03612.038.11093-.0685.21929h-.0709-.071c-.0355-.03612-.071-.03613-.071-.03613-.0354 0-.0355 0-.0355-.03612-.0076-.03354-.0076-.03353.0279-.03611zm-1.4345.41795c-.2534.00258-.3954.04127-.4308.07739h-.1445c-.0709-.07224-.1444-.07223-.2154.00258-.0355.03612-.1065.07482-.2155.07482-.1089-.10836.033-.21929.5019-.29668.3954-.00258.4663-.04129.5727-.15223.0355-.03611.1445-.07481.2864-.07739.2864-.00258.6818-.18834.4284-.2967-.0355-.03611.0355-.07224.2154-.14963l.2864-.07482-.3548.36893c-.5348.55726-.6412.6295-.9302.52373zm.6615 1.45764c.6742-.88491 1.1735-1.25383.7832-.66561-.5323.69916-1.1025 1.29252-1.3509 1.55051-.3928.258-.2534-.03611.5677-.8849zm-7.7453 10.17254.3548-.6269c.1774-.3302.3878-.663.4968-.7714.109-.0025.109-.0387.071-.0722 0-.0361.0355-.1109.1419-.2219.1419-.147.2154-.258.2129-.2941 0-.0361.0355-.1109.071-.147.1444-.1497.996-1.29.9934-1.4732 0-.0361.033-.1109.142-.2193.2129-.2218 2.8437-3.68665 3.201-4.05558.1039-.29411.1039-.25799.4993-.51598.0355-.0387.1419-.14706.2839-.36893 0-.14705.0354-.18317.0709-.14705.0761.25541-.1014.54951-.4942.8849-.2839.40247-1.3483 1.73114-1.3483 1.84204 0 .0361-.071.1471-.2129.2941l-.7122.8849-1.067 1.4009c-.2839.4051-.6767.8127-.7806 1.1068l-.7806 1.179c-.3904.5521-.6387.9211-.6387 1.0294-.1116.2503-.3979.3999-.5044.2915zm3.4545.5521c-.2154.0026-2.0453.3122-2.4407.3174-.3244.0026-.5044-.0336-.5044-.0697-.0354-.0361.6793-.3354 1.0772-.2296.109 0 .2154.0336.3599-.0748.1064-.1109.1774-.1109.2864-.0026.109.1084.1444.0361.2864-.0774.2509-.0026.3953-.1135.5018-.0051.1799.0722.2889.0696.3599-.0052.1064-.1109.0355-.0361.1445.0722zm.6463-.0051-.1445.0026c-.038-.0362-.0735-.0723-.0735-.1084v-.0361l.2154-.0026c.109-.0026.1116.0336.0026.1445zm.4308-.0774c-.1799.0026-.2509-.0335-.2154-.0697.071-.1109 1.0771-.0825 1.0771-.0825.0735.0722-.6437.2605-.8617.1522zm1.0037-.3019c-.18.0026-.2509-.0335-.2155-.0722l.5399-.0052c.2889-.0025.5753-.0412.6843.0671l.2154-.0026c.0355 0 .18.0336.4309.0697.3953.0697.5753.1032.5778.1419l-.2889.0026c-.1799.0026-.4308-.031-.7198-.0645-.5398-.1058-1.1152-.1368-1.2241-.1368zm-9.375 4.7729c.071-.1471.1064-.2219.071-.2193 0-.1084-.1445-.0361-.142.2219-.1064.2915-.0355.2915.071-.0026zm.5652-1.032c0-.0361-.0355-.0361-.071 0-.1064.1109-.1064.1471-.0709.1471.1089.1109.1444.0387.1419-.1471zm31.6301 2.7812c-.066.1367-.066.2038.002.2038 0-.0336.033-.1342.077-.2606-.006-.0052-.008-.0077-.013-.0103-.033-.0336-.066-.0336-.066.0671zm.106-.129c-.01.0258-.017.049-.027.0748.073.0645.081.0284.027-.0748zm-31.3813-3.1656c.1065-.1109.0355-.1109-.0709 0-.0355.1471-.071.2219-.071.1858v.0361c.109-.0026.1444-.0774.1419-.2219zm36.6813-4.3652c-.01.0593 0 .0593 0 0zm16.261 10.0281-.025.0052c-.013.0387-.026.049.025-.0052zm-16.656-9.4141c.098-.2373.098-.307-.135-.0671-.132.1368-.164.2039-.063.2039.033 0 .099-.0336.198-.1368zm-22.1896 9.7753-.0279.0052c-.0127.0412-.0254.0516.0279-.0052zm32.7836-15.9903h-.033zm-31.5645-6.13502c.0354-.03869.0329-.07223 0-.07223-.2535-.10835-.1445-.03612-.1445.07223 0 .11094.0355.11094.1445 0zm.5753-.00256c-.0025-.11094-.038-.14706-.0735-.14706-.2155-.06966-.2509-.03354-.1419.07481.1064.10836.1774.10837.2154.07225zm.9327-.08256c.1089.10835.1089.03611 0-.07225-.109-.10835-.1445-.10834-.1445-.07223-.109.11094-.0355.14448.1445.14448zm17.2035 13.47744.198-.2064c.099-.1703.132-.2735.066-.2735s-.132.1032-.198.2735c-.23.3767-.23.3406-.129.3406zm-12.5984-13.08272-.4309.00258c0 .10836.6843.17802.7933.06708.1419-.03612.033-.07224-.3624-.06966zm11.4814 15.06152c-.033 0-.066.0696-.066.2064l.002.2038.066-.1367.198-.3406c.063-.307.162-.5108.327-.614 0-.1006.132-.1032.132-.2064s.098-.2373.195-.4773l.099-.2373c.033-.0336.033-.0671.03-.1032l-.198.3405-.2.1393v.0671c-.033 0-.066.0671-.132.2038l-.261.547c-.099.2373-.066.1702-.063.2734l-.066.0671c.003.0335-.03.0671-.063.0671zm35.999-5.2966-.066-.067-.137-.2039c-.101-.1677-.268-.3018-.471-.4024-.101-.1006-.167-.1342-.269-.1316-.167.0026-.301.0361-.334.0697-.499.2425-1.156 1.2693-1.643 2.8688-.098.2735-.395.6502-.661.7559-.101 0-.395.4438-.662.6863-.23.2735-1.092.9958-1.589 1.5092-.263.2735-.428.4799-.529.4799 0 .0336-.033.1032-.132.2038l-.165.1393-.365.3432c-.266.1728-1.391 1.2383-1.389 1.3725-.263.3741-.727.7868-.727.6862.033-.0335.099-.0335.132-.1367.099-.1032.164-.2064.197-.3431.231-.24.33-.3767.33-.4799 0-.1006.033-.1367.132-.1367v-.1368c0-.0335.294-.5804.395-.5469.631-.3793.132-.1032.132-.2735-.102-.1006-.003-.1703 0-.0671.101.1007.167-.0025.263-.276l.33-.5469c.53-.5496 1.546-2.6651 1.908-3.145.228-.5443.228-.614.127-.8849-.033 0-.068-.0335-.068-.067v-.0671l-.069-.0671-.068-.0671-.203-.2012-.337-.338c-.233-.0671-.335-.1316-.335-.2012-.233-.1006-.603-.098-.6.0051-.135.0362-.168.0697-.066.0697.066 0 .068.0671.002.2038-.033.0336-.033.0671 0 .0671.033.0335.066.1341.069.2709 0 .1032-1.376 2.7992-1.574 3.0056l-.264.4773c-.266.2734-.23.2734-.132.2734.132 0 .168.031.069.1368-.264.2734-.53.583-.527.8204-.059.0619-.15.0748-.198.0748.063.1006.03.2348-.066.3354l.003.2038-.066.0697c0 .0335-.033.067-.066.067s-.099.1032-.264.3432c-.002.0154-.007.0309-.01.0464-.073.08-.121.1393-.121.16-.099.1032-.497.3121-.599.2089-.101.0026-.134.0362-.131.1394.002.2373-.165.307-.398.4101-.264.2064-.398.3096-.396.3432-.066.0696-.101.1032-.131.0696-.102 0-.132.0362-.132.0697.002.2373-.297.4437-.398.3431-.102-.1006-.499.1084-1.262.6244l-.198.1728c-.033.0335-.033.0335-.066.0335 0 .0336-.132.1368-.398.3432-.233.1032-.398.2399-.464.3431 0 .1032-.164.1032-.266.2064-.167.0697-.266.1032-.266.0697l.066-.0671c-.532.3792-1.13.5211-1.663.7636-.496.4464-2.129.7327-2.397.5676-.269-.1006-.271-.4386-.015-1.6331.256-1.0551.78-2.0794 1.049-2.1852l.466-.276c.099-.1032.165-.1367.266-.1393.231-.2399.431-.3432.664-.3457.099-.1032.231-.1729.431-.209l.233-.0697.398-.276c.102 0 .401-.1058.398-.2064l-.045-.0464c.012-.0129.027-.0207.045-.0207l.066-.0696c.033-.0336.099-.0697.132-.0697 0 .0335.033.0671.066.0671v-.0671c.101.0671.233.031.332-.0696l.332-.2761.132-.0697-.198.2064c-.264.3767-1.095.9262-2.124 1.3106-.365.1729-1.262.5882-1.262.6914.101.1007 1.034-.1806 1.797-.6965.499-.1058.765-.3483.864-.3483.167-.0026 1.594-.8307 2.124-1.3803 1.026-.8255 1.822-1.4086 2.182-2.3296.16-.8179.198-.3406.19-1.0217-.104-.5753-.438-.5056-.205-.6088.266-.1032-.003-.3045-.276-.9494l-.337-.4051c-.236-.2348-.502-.1986-.87-.1961-.301.0026-.666.0749-1.067.2142l-.798.3457-.928.6217-.598.5496-.661.5495c-.892.9262-2.907 3.39-2.905 3.7641l-.066.1367-.129.4076c-.2.2374-.226.6012-.378.9365-.253.2555-.623.5754-1.008.9107l-1.724 1.3751c-.529.547-1.723 1.3751-1.992 1.3777-.266.0026-.301.0026-.205-.5418.096-.3741.289-1.2616 1.303-3.6841 1.928-4.5716 2.055-5.2527 1.487-5.2475-.164.1032-.233.0361-.134-.1342.033-.0335.03-.0671-.068-.0671-.267.24-.5.0387-.401-.0645.099-.2399.099-.2399-.269-.1341-.233.0026-1.358.9649-1.459.9649-.046.049-.064.0877-.069.1058 0-.0078.003-.0181.003-.0362-.099 0-.297.2735-.662.5496-.263.2734-.562.583-.796.6862-.266.2399-.365.2425-.463.4799-.099.1032-.033.1367-.132.1367-.102-.2373-.069-.2038-.066.0697l-.132.2734c-.099 0-.101-.0335-.066-.067.099-.1032.099-.1703 0-.0671-.099 0-.132.0361-.132.1367l-.131.2038c-.102.0026-.434.1729-.928.6889l-.598.4798c-.099.1032-.2.1729-.264.2064-.066 0-.131.1032-.2.2735-.099.1367-.165.1728-.264.2735-.098 0-.131.0361-.131.0696 0 .0336 0 .0336-.033.0671l-.099.1367c-.165.1032-.266.2064-.264.2735 0 .1032-.033.1367-.131.1367l-.3.2735-.628.6166c0-.0335.033-.1032.066-.1367.165-.1729.955-1.4706.851-1.6383-.033 0 0-.067.066-.2038l.033-.0361c0-.0335.031-.0671.031-.1006-.099 0-.165.1703-.528.8204-.131.1393-.197.1728-.2.1393-.101-.1006-.332.3096-.593.6863l-.198.4102-.263.3405-.591 1.2306-.329.3432.393-.8875c.263-.3096.395-.5805.393-.8204.098-.1032.096-.307.329-.547.099-.2373.294-.614.525-.8875.23-.2734.296-.5804.395-.6836 0-.1032.395-.6502.923-1.437l1.117-1.9788.923-1.5712c.623-1.0578.755-1.3338 1.118-1.7105l.332-.3431c-.003-.1032.098-.1703 0 .0671-.097.2734-.36.8539-.591 1.0939-.362.4463-.824 1.1635-.725 1.1609.003.1703.069.1367.2-.0696l.398-.2761c.266-.1058.596-.516.593-.7533-.101-.1006-.101-.1703-.002-.2735.334-.0026.988-1.3673 1.054-1.3673 0-.0671.066-.1368.2-.2065.099-.1032.198-.2734.264-.4772.129-.2735.231-.3767.329-.4799.054-.0542.115-.1212.178-.2064l1.49-.0129c.099 0 .302.0645.535.0619.768.0955 1.234.0903 1.47.1909.768.0929 1.434.0542 1.536.0516l.134-.067c-.002-.1032-.269-.031-.535-.1316-.534-.098-.501-.0645.401-.0723.801-.0077.699-.1083.864-.2115.101 0 .565-.1419.466-.1419.168-.0026.267-.0026.332-.0361.168-.0361.368-.0697.398-.1729-.002-.2038-.869-.0929-1.204-.2605-.233-.1007-.567-.1316-.8-.129-.269.0025-.571-.0981-.801.0077-.5.0052-.667-.0619-.535-.1987 0-.0335-.069-.067-.203-.1341-.033 0-.033.0361 0 .0671v.067c-.099.1032-.132.0697-.134-.067-.033-.0336-.102-.0671-.135-.0671-.101 0-.131.0361-.131.0697.068.067 0 .067-.201.0025-.101-.1006-.134-.1006-.134 0 .102 0 .102.0671 0 .0671-.099 0-.101-.0671-.203-.0671.102-.1032.099-.1702 0-.067.003.2373-.499.1754-.735-.062-.101-.2373-.169-.2347-.066.0026.102.1006.036.1342-.131.1367-.132-.0412-.418-.0644-.789-.0748.264-.2734.619-.64237.713-.87714.362-.54694 1.219-1.67694 1.383-1.91429l1.387-1.71306c.889-1.2977-.243-1.08615-.679-1.42153-.472-.30185-.837-.16253-1.067.35087-.066.13674-.132.20639-.198.20639-.101 0-.033.17028-.264.27347 0 .10062-.463.58049-.725.95716l-.922 1.36735-1.25 2.05103-.537.73005c-.636.0155-1.211.0336-1.526.0362-.233.0696-.4.0722-.466.0051-.003-.1702-.203-.1677-.601-.0619l-.534.0748.263-.3431.264-.4102 2.775-3.21973c.763-.65272.892-.92619.991-1.30027-.003-.27347-.172-.60886-.406-.60886-.167.00258-.268-.10062-.334-.26832-.37-.30185-.672-.29926-.869.00775-.132.13673-.231.20639-.267.20639-.032 0-.065.03613-.065.13674 0 .17028-.064.27347-.198.34055-.53.54952-.994.99585-.991 1.09646 0 .03354-.033.1032-.132.20639-.167.06966-.266.17286-.263.27347 0 .1032-.264.47728-.791 1.09388-.266.27347-.461.65014-.728.89007-.096.30701-.228.47728-.329.47986-.033.03354-.066.06709-.066.10321v.03352c.003.13673-.129.34055-.395.61402-.429.71717-.426.92107-2.193 1.10937-.998.1806-1.166.1109-2.065.2915l-.667.1419c-.033.0361-.233.0697-.6.0748-.033.0336-.165.0697-.332.0723l-.267.0026c-.033.0361-.167.0361-.4-.0645-.236-.1342-.368-.1651-.401-.1316-.098.1032-.096.5779.006.6785.098-.1032.136.1677.136.405.074.5083.343.8127.809.8772.502-.0051 1.399-.1832 1.665-.2889.099-.1032.101.0335.2-.0697.033.0335.066.0335.066 0 .099-.1032.167-.0361.532-.1393.234.098.401.0619.533-.0748-.102-.1006 1.198-.3173 1.201-.1471.101.2709-.294.7843-.395.6837-.102 0-.396.4437-.396.6837 0 .0335-.033.0671-.132.0696l-.101.0697c-.066.0335-.132.1032-.165.2064l-.164.2064c-.033.0335-.033.0335-.033.067-.033-.0335-.066-.0335-.066.0671 0 .1032-.033.1368-.132.1393 0 .1032.035.2039-.063.3406-.231.3767-.294.614-.064.3405 0-.1032.099-.1032 0 .1342-.066.1032-.099.1703-.132.1367-.101-.1006-.365.1729-.461.547l-.132.2734c-.098.1032-.131.1368-.066.1368.102 0 .135.0335.135.0671 0 .0335-.033.067-.066.0696-.233-.1006-.233.0361-.132.1367.033.0336.036.0671.036.0671 0 .0336 0 .0336.033.0336s.033 0 .033-.0336c0-.0335-.003-.1032.032-.1367.099-.1032.165-.1393.201-.1393 0 .0335-.066.1367-.198.3405-.231.2735-.129.4102.134.1342.231-.2399.231-.307.132-.0671 0 .1006.036.1342.069.1342.098-.1032.164-.3071.063-.4077-.233-.1006-.101-.3044.129-.4076.165-.1032.233-.1032.134-.0026 0 .0336-.032.1032-.131.2064s-.168.0361-.066.1342c.101.1006.134.1006.134 0-.002-.1006.063-.2038.198-.2735.099-.1032.132-.1032.132-.0671l-.13.2709-.197.3406c-.099.1032-.132.1702-.132.2734-.099.1032-.167.1032-.2.0697-.102.0026-.165.0361-.266.1393-.165.1703-.165.2735.002.2709.299-.0026.302.1006-.063.3406-.165.1367-.233.2399-.201.2734.069.0671.003.1342-.197.2038-.099.1032-.132.2064-.129.3406.103.2373-.094.5805-.198.3431-.102-.098-.294.2993-.39.9339-.011.0078-.021.0155-.031.0207h-.007c-.033 0-.036-.0336-.036-.0671-.066-.0671-.134-.0335-.2.0696-.033.1368-.066.2039-.066.1703v.0284c-.081.049-.17.0955-.266.1445-.091.0954-.233.2244-.406.3767.183-.3432.246-.6889.335-.7844.099-.1031.033-.1702-.066-.067l-.132.2064c-.051.0516-.213.5753-.345.8255-1.502 1.2719-4.777 3.728-5.086 3.8467-.2334.1032-.6287.4798-.7301.4824-.2332.1032-.3321.24-.5982.3457-.2661.1393-.2686-.1677-.0076-.9519l.3903-.9546c.0989-.2399.2966-.4799.3954-.7534l.5902-1.0242c.72-1.5686 3.891-5.472 4.352-5.9518.132-.0697.132-.2064-.003-.4077-.101-.2373-.235-.3379-.471-.4721-.269-.3715-.639-.5031-.737-.2657-.365.209-.267.1058-.86 1.0965-.626.8204-1.057 1.1635-1.586 1.713-1.0267 1.0629-2.451 2.2652-3.5105 3.0907l-.6614.6166-.332.209c.0025.2038-2.6511 2.131-2.8513 2.3374l-.3295.2735c-.2306.2399-.5652.3122-.3346.0722 0-.067.0989-.2373.3295-.5469.2332-.1032.5602-.7534 1.0569-1.3003.4942-.5134.8921-1.0629 1.1253-1.1661.4917-.8875 2.3798-2.6057 2.9095-3.1527.6286-.5495 1.5588-1.3054 1.9241-1.308.101 0 .266-.0696.466-.2089.264-.2735.499-.3096.735-.0749.236.2348.104.2348.2-.1367.096-.5108-.446-1.3209-1.082-1.6898-.37-.2684-1.2698.0464-2.0631.6991-.5297.5495-2.6815 2.5386-2.8437 2.8792l-.7274.823c-.3649.3767-.6259.7869-.8591 1.0268-.1495.2038-.3118.4412-.474.6888-.3117.2916-.5804.565-.5804.6141-.0988.1031-.4992.3095-.5981.2089-.1014 0-.1318.0336-.1318.1367.0026.2374-.1647.3071-.3979.4128-.2661.2064-.3979.3096-.3979.3432-.0659.067-.0989.1032-.1318.0696-.1014 0-.1343.0361-.1343.0697.0025.2373-.2966.4437-.3979.3431-.1014-.1032-.4993.1058-1.2622.6218l-.1977.1728c-.0329.0336-.0329.0336-.0659.0361 0 .0336-.1318.1368-.3953.3432-.2332.1032-.398.2425-.4664.3431.0025.1032-.1647.1032-.2636.2064-.1672.0696-.2661.1032-.2686.0696l.0659-.067c-.5323.3792-1.1304.5211-1.6627.7636-.4967.4463-2.1289.7327-2.3976.565-.2686-.1006-.2711-.4386-.0151-1.6305.2559-1.0552.7831-2.0794 1.0492-2.1852l.4664-.276c.0988-.1032.1647-.1393.2661-.1393.2306-.24.4308-.3432.664-.3457.0988-.1032.2332-.1729.4334-.209l.2331-.0697.398-.276c.1014-.0026.4004-.1058.4004-.209l-.0481-.0464c.0126-.0129.0278-.0207.0456-.0207l.0659-.0671c.0329-.0335.0988-.0696.1318-.0696 0 .0335.0355.0671.0684.0671v-.0671c.1014.0671.2332.0335.332-.0722l.332-.2735.1344-.0697-.2003.2064c-.2636.3767-1.0923.9262-2.1238 1.3106-.365.1729-1.2622.5908-1.2622.6914.1014.1007 1.0341-.1806 1.7969-.6965.4993-.1058.7629-.3483.8643-.3483.1673-.0026 1.5942-.8308 2.1239-1.3803 1.0264-.8256 1.8222-1.4112 2.1821-2.3296.1597-.8179.1977-.3432.1901-1.0217-.1064-.5753-.4385-.5056-.2053-.6088.2661-.1032-.0025-.3071-.2762-.9495l-.3371-.405c-.2357-.2348-.5019-.1986-.8693-.1961-.2991.0026-.6666.0748-1.067.2142l-.7984.3483-.9276.6191-.5956.5495-.6615.5496c-.8921.9262-2.907 3.39-2.9045 3.7641l-.0659.1367-.1292.4076c-.2307.2735-.2282.7172-.4588 1.0913l-.1951.4773c0 .0335-.033.1032-.0659.1367l-.0634.307c-.0304.2374-.0963.4438-.1267.7147-.223 1.0552-.1876 1.4628.0836 1.971.0025.2374.1039.338.2053.6089.3726.7765 1.3154 1.3467 2.2151 1.339.2687-.0026.735-.1084 1.0011-.2142.365-.2425.6311-.3457.7984-.3482.2661-.1058 1.1608-.5883 1.5257-.9649.365-.2761.9631-.6553 1.3256-.8953l.332-.276c.0988-.1032.2636-.3096.5297-.4128l.1318-.1367.2635-.2735c.2662-.2141.5069-.4025.7325-.5805-.1951.3922-.3725.7534-.4638.8488-.2306.4076-.4562 1.1584-.3219 1.2951.1673-.0026.1673.1006.0026.2709l.2027.2709.3675.1316c.1673.1006.4005.098.3016.2012-.2002.1032.3346.1316.4005.0645-.0989.1032.3675.098.4688-.0026.0989-.1703.2307-.2734.4638-.3431.2332-.1032.7654-.3818.6615-.4825l.7959-.6862c.2661-.2399.1976-.307.7273-.8204.4968-.3793.7604-.7895.9936-.8927.7958-.5521.7933-.823.9909-1.0293.1318-.1368.9276-.823.9276-.8901l1.4548-1.5763c-.4258.8178-.0633.3405-1.1151 1.9813-.2307.2735-.294.6837-.5221 1.2281.3624-.5134.4587-.9572.7223-1.2307.2306-.2399.294-.5804.3954-.6836.0963-.2735.5575-.9211.6589-1.0243 0 .1007-.0329.1703-.1318.2735-.0988.1032-.0659.1703-.0633.2735-.2332.2399-.0989.1703-.1977.2735l-.1977.4102c-.0988.2373-.0963.4772-.1952.4772-.0988.2374-.2331.24-.3294.4799 0 .1032-.1648.2374-.2636.4799-.0989.2373-.0634.307-.0634.4076v.0671c-.0659.1367-.1647.2064-.332.2064l.0659-.2038c-.3624.5108-.4917 1.0242-.5906 1.2951-.2559 1.0887.1876 2.3761 1.4244 2.3657.1977-.2063 1.2978-.454 1.4628-.6939.263-.2735.365-.1729.598-.2787.066 0 .164-.1367.263-.4102.099-.2399.031-.307.132-.0696.233-.1032.565-.2426.664-.4825.363-.4798.363-.4798 1.323-1.3028l.928-.823.129-.1342-.129.338c-.135.0026-.168.0361-.066.1393.015.0284.03.0516.04.0722.076-.2089.178-.4643.246-.6449l.109-.1136.464-.4798.198-.2735.233-.1212c.01 0 .023-.0052.033-.0181.033-.0335.066-.0336.066.0671h-.033c-.033 0-.066.0335-.099.067-.167.0026-.2.0697-.132.2065.033.0335.033.067 0 .067-.033-.0335-.066 0-.066.1368 0 .1032-.033.1702-.066.2063-.098.0671-.197.3071-.261.7508.003.1703-.063.3406-.195.5444-.428.5469-.745 2.4535-.902 3.746-.094.645-.228.6476-.134-.1342-.005-.4411-.038-.5443-.137-.3379-.033.0335-.066-.0336-.069-.2038-.002-.2735-.038-.3741.066-.1368l.069.0671c0-.1032.065-.1703.063-.2735v-.067c-.066.067-.134.0361-.203-.1342 0-.1006-.063.1703-.061.5444-.058.8513.081 1.6305.424 2.3735.372.5392.846 1.5557 1.082 1.5531.101 0 .099-.0361.066-.0697l.134.1006.403.3019c.37.2348.705.436.94.534.571.2322 1.07.2271 1.468-.0825.101-.1032.2-.1393.266-.1393.101.1006.134.1006.134 0 0-.1007.162-.4077.527-.6837.267-.2425.495-.6166.393-.6166-.066 0-.2.0361-.398.1393l-.798.2786c-.433.1058-.667.209-.732.2787-.3.1057-.7.0748-1.202-.1239-.636-.2322-1.244-1.0423-1.356-2.0949-.276-1.05.079-2.5825.695-4.4916.129-.2735.162-.5108.261-.7507l.063-.3406.066-.0671c.101-.1032.132-.1702.132-.2734-.003-.1368.03-.2038.063-.2038.102.1006.198-.2735.195-.5444l.066-.0671c.102-.0026.102-.0361-.002-.1367-.102-.1006-.036-.1703.066-.0671.101.1006.134.0671.131-.0697v-.1367c.099-.1032.429-.7172.525-1.0913.033-.1367.165-.3741.395-.6837.231-.3741.33-.5804.327-.6836 0-.1007.099-.1703.198-.4103l.264-.5443c0-.1032.03-.1703.131-.2735.033-.1032.099-.1032.132-.1367.033-.0336.033-.0336.033-.0671l-.167.0026c-.102.1032-.167-.0336-.071-.2709.101-.1032.033-.0335.134.0671 0 .1702.102.1677.332-.0723.099-.1032.132-.307.064-.5443-.003-.2374-.038-.3045.195-.4102l.197-.3406c0-.1032.033-.1367.066-.1367.102-.0026.102.1341.003.1341l.002.1368c.099 0 .198-.1032.264-.2735.008-.0413.025-.1084.066-.2064l.066-.1367c.099 0 .362-.4463.261-.547 0-.0335.033-.067.066-.0696.101 0 .134-.0361.131-.0697 0-.1032-.035-.1006-.068-.0671-.099.1032-.099.1032 0-.1341.132-.1393.2-.1729.2-.1393.036.0335.066 0 .066-.1368-.002-.2038.459-.7533.527-.6862.102.1006.168.0335.066-.0671-.035-.1703.129-.3741.462-.6837.098-.2373.332-.2399.329-.4798.228-.547.494-.5134 1.797-.6295 1.026-.0723 1.65-.1264 2.025-.1729-.038.0645-.096.1471-.157.2915-.033.0671-.165.24-.396.4799-.096.2399-.23.307-.129.4102 0 .0335-.033.0671-.066.0671-.066 0-.132.0696-.197.2064.002.2038-1.019 1.7414-1.118 1.8446s-.099.1368 0 .1342c.167.0671.829-.8566 1.911-2.7347.035-.1213.22-.4077.461-.7431.309-.0541.266-.0954.266-.147-.035-.0335-.076-.0516-.124-.049.038-.0516.076-.1032.114-.1548h.008l.362-.0026c-.03.0464-.061.0903-.094.1367l-.076.111c-.035.0077-.058.0154-.055.0232 0 .0129.007.0232.02.0309l-.94 1.4035-.528.8204c-.23.3767-.329.6141-.261.6837 0 .0335-.03.0335-.066 0-.068-.0671-.131.0026-.197.2064-.132.1367-.231.307-.33.5469-.23.24-.263.4438-.261.547 0 .1032-.066.1703-.066.0671-.066-.0671-.134.0026-.2.2064-.099.1032-.162.3766-.395.614-.231.2734-.363.614-.459.8875-.132.1367-.231.307-.329.5469-.102.1032-.267.2399-.264.3431 0 .1006-.362.6476-.722 1.2977l-1.97 3.6893-.458.9572-.198.3405.063-.3405c.099-.24.228-.4773.327-.7508.099-.2374.294-.5134.393-.7508.063-.2734.195-.5443.393-.8178.096-.2735.228-.6837.459-.9571.524-1.0578 1.082-2.2188 1.444-2.7322.264-.2734.396-.5804.396-.6836l.266-.2064c.099-.1032.132-.1368.066-.1368-.099.1032-.066-.0335.063-.2734 0-.1032.066-.2039.198-.3406l.197-.3405c.066-.2038.198-.4077.396-.6141.362-.5134.365-.3766.129-.4772-.101-.1007-.365.3766-.596.7533-.228.5134-.623 1.1274-.856 1.2306-.264.2735-.33.4128-.198.4102l-.23.4773-.492.9571c-.231.24-.231.3767-.327.6141-.101.1032-.165.3405-.264.614l-.197.4102c-.132.0361-.201.0696-.168.0696h-.033c-.033-.0335-.065-.0335-.065 0 .101.2709.035.3071-.196.6811-.23.24-.23.4102-.329.547-.066.1032-.099.1703-.132.1367-.035-.0335-.066 0-.066.1368.003.2373-.096.5082-.324.8849l-.066.067-.066.0697.003.0671v.1341h-.066c0 .0336-.033.1032-.132.2064v.0671l-.066.0671h-.066c0 .1032-.033.1703-.066.2038 0 .1032-.066.0361-.066.1367h-.066c0 .1032-.033.1703-.131.2735v.0671.1341.0671c-.201.2064-.396.4799-.594.8204-.197.3406-.326.6837-.39 1.0242-.033.0336-.033.0671-.033.1032-.033.0336-.033.0671-.033.1703-.033.1703-.063.2735-.066.2374v.1006c-.033.0361-.033.1032.003.1341 0 .0336.033.1032.068.1368l.538.2683c.101-.0026.565-.209.666-.2116l.396-.4127c.529-.516.958-.9933 1.323-1.3726l.659-.8204c.263-.3766.694-.6862.79-.9597 1.191-1.2358 4.798-4.8347 5.495-5.2837l.464-.4127c.23-.24.329-.3096.332-.2064.101-.0026-.129.4437-.39 1.0913-.88 2.3864-1.476 3.003-1.825 4.9095-.094.6476-.16.8849-.056 1.1558.035.1703.101.2709.271.338.099 0 .2.1006.269.338.002.1702.101.2709.268.2709.135-.0026.201.067.203.2012.104.3044.505.3689 1.204.2606.765-.1084 1.827-.9701 2.72-1.7931l.263-.3405.198-.2735c.165-.1703.248-.2038.365-.307-.107.6914-.043 1.0423.18 1.4577.002.2373.101.3379.205.6088.375.7791 1.313 1.3467 2.215 1.339.266-.0026.733-.1084.999-.2116.365-.2425.631-.3457.798-.3483.266-.1032 1.163-.5882 1.528-.9648.365-.2761.963-.6553 1.326-.8953l.332-.2734c.099-.1032.263-.3096.53-.4128l.131-.1368.264-.2734c.342-.2761.641-.5083.92-.7302-.19.4335-.388.8617-.585 1.0681-.132.2038-.198.3406-.198.4077-.084.1444-.464.7894-.527.9339-.01-.0645-.066-.0026-.064.0903.008.7481-.061.5779-.058.952-.099.1032.238.4747.337.4721l.066.0671.203.2709c.304.3018.537.2657.732-.0749.102-.1032.165-.2373.264-.4102.099-.1032.263-.307.263-.4102.003.0671.986-1.6408.723-1.3673.129-.2735.593-.9572.725-.9572 0 .1032.098-.0696 0-.067 0-.0336.032-.1032.065-.1368l.066-.0696c.234-.1032.266-.0697.132-.0697v-.0671h.066v-.1367c.233-.1032.497-.516.596-.7533.096-.2735.494-.6837.593-.6863.101 0 .101-.0335.066-.0671-.003-.1032.164-.307.263-.2064.036.0336.069.0336.066 0v-.1341c0-.1032.527-.6502.793-.7559.132-.1394.234-.2064.266-.2064-.101 0-.134-.0336-.136-.1342 0-.0335.033-.0335.134.0671.101-.0026.099-.2038.461-.4799.198-.2734.365-.4102.53-.4128.002.1032.167-.0361.266-.1393.091-.0954.152-.1393.18-.147-.013-.0413.231-.2296.55-.4721l.859-.823.332-.2761.205.5418c.102.2709.305.4386.408.6759l.066.0671c0 .0335.033.0671.066.0671.17.2348.403.2348.735.0619.066-.1703.165-.2735.266-.2735.099-.0025.132-.1728.132-.2734.099-.1032-.304-.1677-.535-.062-.131.0026-.167-.0309-.068-.1341l-.005-.5444c.096-.4773.748-2.3167.981-2.3193.099 0 .099-.1703.197-.2735l-.002-.2038c-.003-.1032.099-.0361.332-.2735l.395-.4128c.018-.0799.114-.3869-.119-.3844zm-26.627.9288-.002-.1342c.098-.1032.033-.1702.134-.0696.101.098-.03.2038-.132.2038zm.395-.4128c.003.1368-.03.1703-.131.0697h-.066v-.0671c0-.0335.033-.0671.132-.0697.033 0 .065.0336.065.0671zm2.241-3.4184.051-.067h.081c.801-.0078 1.569-.049 1.802.0516l1.069.1264c1.07.0903 1.07.227 0 .1341-.502-.098-.902-.0593-1.001-.0593-.276-.0851-1.214-.1006-2.055-.0826.02-.0335.038-.0645.053-.1032zm-.679-1.2848c.372-.4566.367-.31986-.023.3122-.084.0026-.167.0026-.254.0052.117-.1419.213-.2529.277-.3174zm-9.094 5.8616c-.033.0361-.099.0697-.132.0697l.066-.0671c0-.1367.033-.1703.066-.1368.099-.0025.101.031 0 .1342zm-9.015-.4592.0659.0671-.5297.3431c-.1647.1032-.2661.2064-.2636.2735.1014.1006.1014.1677 0 .067-.0329-.0335-.1014-.067-.1343-.067-.033.0335-.033.1031.0025.1367.033.0671.033.1006-.0659.1367-.0988.1032-.1318.0336-.1318.1368 0 .0257-.0177.049-.0659.0619v-.129c-.1672-.1006-.4612.5134-.4612.5469.0329.0336.0329.0671 0 .0671 0-.1032-.2332.1032-.6615.5495l-.5297.547-.5297.4798-.2636.4799-.5297.5495h-.0659c-.2965.3096-.4968.4799-.5297.4799-.0532.0361-.1318.098-.2256.178 1.4599-1.9298 3.8828-4.3962 4.9194-4.9044zm-4.9599 5.2114c.0456 0 .114-.0542.1977-.1187-.2357.3044-.327.4412-.3827.4773-.0305.0026-.0533 0-.0685-.0077-.0025-.0026-.0076-.0052-.0101-.0078 0-.0155-.0051-.0206-.0127-.018-.0076-.0542.0786-.1574.2763-.3251zm-.5221 1.0913.0608-.0619c-.0127.0722-.0355.0877-.0608.0619zm-9.2229-.9339c-.0989.2734-.2636.4437-.2636.5469 0 .0335-.033.1032-.1318.2038-.2661.2425-.0684-.2373.1951-.614.3625-.5469.4284-.6501.5297-.5469.0685.067-.0304.2038-.3294.4102zm.5271-.7508c-.0988 0-.0329 0 .0659-.2735l.1318-.1367c.0989 0-.0963.307-.1977.4102zm.3295-.4798c-.0329-.0336.0329-.1703.2636-.4103.1318-.1367.2306-.2063.2661-.2063l-.2306.3431c-.1648.2038-.2661.307-.2991.2735zm4.0754.2347c-.0988.1703-.1977.2735-.2661.2761-.033-.0336.0329-.1368.1977-.2735l.2661-.2064v.0671zm.4638-.3457c-.0988.1032-.2331.1058-.1317.0026v-.0671h.1343c.0963-.1058.0963-.0387-.0026.0645zm.1977-.2734-.0659.067-.0659.0671c0-.0335.033-.1032.0659-.1367.2307-.2348.2965-.2374.0659.0026zm.2636-.2065c0 .0336-.0329.0671-.0659.0671v-.0671c-.1014 0-.1014-.067 0-.067h.0659zm-1.2824-1.5505.3979-.276c.2661-.1032.299-.24.5297-.3431l.5981-.2761c.2661-.0697.4005-.1058.4005-.0697.0025.1007-.0634.2709-.1952.4773-.0988.2735-.1647.3741-.3954.614-.1647.3406-.3294.5109-.4638.547-.1647.1032-.2636.2064-.2636.2735l-.3953.4127-.5982.4799-.5297.3457-.2661.2064c-.2332.1058-.2306.1729-.4663.2761l-.3954.276c-.0988.1032-.2332.0361-.332.1393-.2332.1032-.2332.1032-.332.2064l-.4664.209c-.1318.0696-.2002.0696-.2002.0026-.0329 0-.0684-.0336-.0684-.1342l.1318-.2064c.0659-.1703.2306-.3741.5297-.6166l.5296-.6166c.1318-.2373.2307-.2399.3295-.3431l.2636-.2735.2661-.2735c.033-.0335.0989-.0696.1318-.0696l.2003-.1393.4663-.3432zm-2.9907 1.2513c.033-.0361.0659-.0361.0659-.0026l-.0659.0697v.067c-.2332.1058-.2332-.0283 0-.1341zm.1318-.1368.033-.0335.0988-.1703c.2331-.1032.2331-.1032 0 .1342-.0989.1032-.1318.1032-.1318.0696zm.3295-.4102.0659-.067c.0329 0 .0659.0309.0659.067 0 .1032-.033.1032-.0659.0697-.033-.0026-.0659-.0361-.0659-.0697zm-2.1847 1.9221c1.3508-2.0175 2.5395-3.2868 3.5026-3.7718l.332-.1394-.1977.2064-.5297.4799c-.1673.0697-.2661.1728-.2636.2735l-.1343.0025c-.0329.0336-.0329.1032.0026.1368.0988-.0026.0659.0335-.0659.0671-.0989.1031-.1318.0361-.1318.1367s-.033.0335-.1318.1367v-.0335c.0329 0 .0329 0 .0659-.0361v-.1342c-.2332.0026-.4639.3792-.4613.614-.1014-.1006-.5627.4463-1.323 1.3725-.7603.9236-1.1887 1.5402-1.1887 1.4396.0963-.1341.1597-.3715.5247-.7507zm-.5829 2.0433c.0963-.3741.2306-.3406.1317-.0671.0026.1032-.0278.4076-.261.6811-.2636.2399-.1343-.1006.1293-.614zm1.3762 4.5432.0658-.1367.2003.067c-.0989.1006-.3675.0697-.2661.0697zm.3649.1341c.0178-.0051.0558-.0232.1039-.0722.1673-.0026.2332.031.2003.0671l-.2662.0026c-.0203 0-.0304 0-.038.0025zm.3042.129c-.1648.1032-.2332.1032-.1344.0026.1014-.1032.1673-.1393.2003-.1393.1013.1032.0329.0361-.0659.1367zm.5322-.2064c-.2636.24-.4309.1394-.332.1394.0988-.2374.1672-.1032.3979-.2064l.1318-.0697zm-.0026-.2038c-.2002.1393-.332.2064-.3979.209v-.0671c.0989-.1032.5627-.2786.6641-.2786-.0989.1006-.1648.1341-.2662.1367zm.4689.1316c-.0329 0-.0329-.0335 0-.0671l-.0684-.2038.0659-.0671v.0671c.033 0 .0988-.0026.1318-.0361l.1901-.0439c.005-.0154.0101-.0387.0101-.0619-.0659 0 0-.0335.1977-.1367.2332-.0026.2002-.0361-.0659.0696-.0558.0594-.0912.0981-.1166.1239l.2484-.0568c.1647-.0696.2661-.1032.2661-.0696.0076.1677-.8592.4127-.8592.4824zm.9961-.6914c-.033.0361-.1014.0361-.1673.0361l.0329-.0335c.0989-.1032.1648-.1394.2003-.1394s.0329.0362-.0659.1368zm.9301-.4825c-.1647.1394-.2991.1729-.332.1394l-.0659.0696c.033-.1703.1648-.2735.3979-.3431.1014 0 .1673-.0697.2661-.0697zm.659-.9597-.2661.2064c-.3675.1058-1.0949.6553-1.1963.7585 0 .0336-.033.0671-.0659.0697-.1014-.1007-.2002-.031-.2002.0696h-.0659c-.2307.24-.8947.6192-1.2622.6244-.0659 0-.2002.0361-.4004.1393l-.2662.0696c0 .0336-.0329.0361-.0329 0-.033-.0335-.033-.0335-.033-.0671-.1013 0 .5323-.276 1.3306-.5572.0989 0 .5297-.2425.7984-.3483.1318-.1367 1.361-.8952 1.4599-.8978l.2002-.1032c.0329-.0335.0329-.0335.0659-.0335zm.8642-.4153c-.0659.1367-.1647.2063-.2636.2063-.2357-.098-.1343-.1006.1293-.3405l.2661-.1393zm1.1938-.9623c-.0989 0-.1014-.0336-.0659-.0671 0-.1032.0329-.1368.0659-.1368h.0659c0 .1006-.033.1703-.0659.2039zm.4764 1.3544c-.0963.3741-.2306.3096-.0025-.2038.0989-.2735.2307-.4076.3295-.4102.1014 0 .038.2373-.327.614zm1.2242-2.8431c-.0254.0362-.0482.0723-.0735.1084.0127-.0284.038-.0645.0735-.1084zm-.5754.596c.0989-.1032.1648-.1393.2003-.1393.0177.0077.0304.0155.0456.0258-.0659.0929-.1292.1754-.1875.2451-.0304-.0078-.0558-.0439-.0584-.1316zm.0761 1.0165c-.0684-.0671-.0025-.2038.1952-.4076.0101-.0284.0202-.0491.0329-.0749.0558-.0516.1115-.1057.1648-.1599-.0229.0593-.0913.1806-.1623.3018zm1.9414.5263c-.2332.0026-.1673.0026.1977-.2735.0329-.0361.0659-.0361.1014-.0361.0354 0 .0329 0 .0329.0335zm1.9262-1.1042c-.4968.5134-.8947.6527-.7958.5495-.0026-.2038 1.3888-1.3028 1.5232-1.3054.1673-.1032.4308-.3096.7299-.6192.3954-.4102.6285-.6166.7274-.6166.0025.2709-1.0265 1.0629-2.1847 1.9917zm3.3759-3.0211-.4613.4799c-.4993.276-.2002.1032.3295-.4102.2306-.24.2332-.1729.1318-.0697zm.9884-1.5737c.099-.1032.132-.1032.132-.0697.002.1703-.031.2709-.129.2735-.102 0 0 .0335-.003-.2038zm.076.9494c-.264.4102-.428.6166-.53.6166-.099.1032-.101-.1007.264-.4773.264-.24.365-.1393.266-.1393zm-.469-.0619c.231-.24.102.0309-.129.2734-.051.0232-.086.0361-.117.049zm-.258.8849c.033-.0336.066-.0362.066.067 0 .0336-.033.1032-.132.2064-.033 0 0-.1006.066-.2734zm-1.9645 4.3677c0 .1032-.033.1368-.0659.1368 0 .0335-.033.1032-.1318.2064.0659-.0026-.0938.8152-.1926.8178-.0989 0 .1622-.6475.0608-.7482-.0989.0026-.038-.3741.1926-.8849.1673.0671.2002.1342.1343.2038-.0988.1007-.0988.1677.0026.2683zm3.8095.3741c-.631.3793-.93.5186-.93.4851-.102-.2374.167-.0362.861-.6889 1.164-.6578 1.126-.8591.069.2038zm1.49-1.1351-.297.2399c0-.1032-.035-.1032-.134 0s-.233.0026-.132 0c.099-.1032.168-.0361.264-.2735.167 0 .596-.5134.598-.3431 0 .1006-.167.2374-.299.3767zm2.228-1.8369.053-.0619c-.005.049-.023.0696-.053.0619zm-.112-.5986-.299.209.464-.4799c.099-.0438.218-.1393.347-.2554.005.0387.003.0774 0 .1239-.18.147-.355.2863-.512.4024zm.576.8798c-.033 0-.066-.0335-.069-.1342-.002-.1367.031-.2038.132-.2064.033 0 .066.0671.068.2039 0 .1006-.033.1367-.131.1367zm.654-1.3648c-.099.1032-.033.1368-.132.1368-.033 0 0-.0671.129-.2039l.003-.0025c.032.0025.032.0361 0 .0696zm.39-1.0242v.0671l-.008.0051c.008-.0206.01-.0464.008-.0722zm.035.3044c-.015.0129-.028.0258-.043.0387h.01l.028-.0309c-.02.0645-.053.1238-.096.1651-.023.0232-.043.0284-.061.0258l.061-.0929v-.0206c-.033.0283-.066.0541-.099.0825-.028-.049-.028-.1393.03-.1986.013-.0129.023-.0258.033-.0387.011-.0104.023-.0181.033-.031l.094-.098c.033.0593.031.129.01.1986zm.299-.3741-.066.1368h-.065c-.033 0 0-.0671.131-.2038.099-.1032.099-.0362 0 .067zm.588-1.2977c-.098.1032-.131.1703-.131.2039.002.1031-.033.1367-.066.1367-.099.1032-.102-.031-.003-.2709.099-.2374.33-.4437.332-.2064.003.1006-.033.0335-.132.1367zm.834-3.8131c.066-.0696-.129.2735-.198.3406l-.131.1367c0-.1006.23-.3741.329-.4773zm-.058.952c-.099.1032-.132.1032-.132.0026-.035-.0335-.035-.0671.066-.0671.132-.1058.165-.0387.066.0645zm-.317 1.9066h-.066-.066c-.002-.1006.033-.0362.132-.1368.033-.0335.066-.0335.066.0671.003.0336-.03.0697-.066.0697zm.058-1.0887c-.098.1032-.131.1032-.131 0 .065-.1368.131-.2039.197-.2064.033-.0336.066-.0336.069.067zm.462-.6166c0 .1702-.031.2734-.132.2734-.266.0026-.302-.098-.069-.3379.231-.2761.297-.2064.201.0645zm.524-.9546c-.101 0-.101.0335-.066.0671.036.0335.036.1032-.063.2038-.099.1032-.132.1032-.132 0 .064-.2374.162-.3741.264-.4102.099-.1032.132-.1032.134-.0026-.002.1058-.035.1393-.137.1419zm.33-.4799c-.231.2735-.233.0697-.003-.2038.099-.1032.132-.1367.132-.0696.003.1032-.03.1702-.129.2734zm.593-.8875c-.033.0336-.066.0362-.069-.067 0-.0336.033-.1032.066-.1368.033 0 .066.0336.069.0671 0 .0335-.033.1006-.066.1367zm4.058-1.6718c-.132.0026-.201-.0309-.201-.0644l.135-.0026c.233 0 .299-.0361.066.067zm.735-.0051-.267.0026c.066-.0671.168-.1032.267-.0697.364-.1058.364-.0387 0 .0671zm.397-.0129c-.03-.0697.003-.1187.094-.1522-.03.0567-.061.1083-.094.1522zm-4.582 10.041c.033-.0335.066-.0361.066.0671.003.1032-.063.2038-.198.2735-.131.0025-.099-.1007.132-.3406zm1.475.7017c-.132.1703-.23.2735-.329.3096-.132.0697-.201.0697-.201.0026.099-.1032.629-.5495.73-.5495zm.327-1.0577c-.099.1032-.165.1367-.2.1367-.101-.1006.099-.1703.198-.2735.098 0 .101.0336.002.1368zm4.833-4.4633c.497-.3766.563-.3121.066.0671-.165.1703-.296.2735-.398.2761-.101-.1007-.167.0361.332-.3432zm-1.492 1.2023c.364-.3096.727-.6166.828-.6527l.198-.2064-.066.2038c-.066.1032-.099.1702-.132.1393-.033 0-.033 0-.066.0335l-.131.1032c-.895.823-1.093.9288-1.194 1.0294-.099.0026-.134-.0335-.134-.0671.233-.2373.463-.4102.697-.583zm-.895.8591c-.066.1367-.132.2064-.198.2064-.099.1032-.068-.1006.198-.2064zm-.596.5495-.332.3431-.329.3432-.2.1367c-.198.0026.664-.6166.861-.823zm-1.323 1.4396c-.101-.1032-.134-.1032-.132 0-.032.0361-.065.0361-.065.0026 0-.0336.03-.1032.065-.1368.234-.1057.3-.0361.201.0645 0 .1032-.033.1032-.069.0697zm.271.2709c-.299.1032-.266.0361.066-.2038.132-.0697.201-.0697.201-.0026zm.33-.3431c0-.0078.02-.0336.048-.0671h.018zm1.657-1.3751c-.164.1728-.364.3096-.529.4128-.099 0-.563.5159-.662.6165l-.266.2064c-.058.0258-.101.0439-.137.0542.353-.3921 2.2-2.0587 2.322-2.1826.099-.1032.332-.209.595-.4824.763-.6527 1.293-1.1326 1.194-.8953-.066.1032-.165.2064-.266.2761-.165.0026-1.391 1.1016-2.251 1.9943zm.842 4.409-.066.1368c-.261.7146.106.7456-.061.7481-.266.0026-.238-.4747-.139-.7456l-.003-.1367c.099-.2735.365-.276.269-.0026zm.193-.8178c-.165.1032-.267.1032-.267.0026.099-.1032-.035-.1006.064-.2038.099-.2735.165-.307.261-.547.165-.4076.228-.5805.129-.4773-.033 0-.068-.067-.068-.2038.197-.2064.329-.4437.393-.7507l.192-.6811.33-.614c.195-.4773.294-.7147.327-.6837.098 0 .164-.0336.068.2038-.099.2735-.33.4437-.33.5469l-.063.2709c-.231.2735-.063.4077-.327.6837.099-.1032.167-.0361-.192.7508l-.064.4076-.324 1.0216zm1.558 2.4999-.167.1032-.033.0336c-.101-.1007.099-.2064.198-.2064.101-.1006.101-.0336.002.0696zm.53-.3431c-.033-.0335-.101-.0335-.134 0-.033.0361-.066.0361-.066 0 0-.1032.033-.0335.131-.1367.132-.0697.201-.0362.201.0645-.097.1057-.031.1728-.132.0722zm1.128-.9623-.398.276-.2.1394c-.234.0025.763-.5857.927-.7559.099-.1058.036.0644-.329.3405zm1.652-1.6486-.048.2322c-.058.0542-.127.111-.213.178l-.664.4825c-.132.1367-.233.1728-.132.0671 0-.0671.165-.2374.53-.547.259-.1935.431-.405.593-.5469-.002.0335-.033.1006-.066.1341zm1.916-2.327-.327.3405c-.002 0-.002.0026-.005.0026v.0026l-.329.3405c.04-.0697.083-.1393.132-.2064.362-.5469.428-.6501.529-.5495.013.0129.018.0309.018.049zm.195-.4103c-.101 0-.033 0 .064-.2708l.132-.1394c.101 0-.097.307-.196.4102zm.33-.4798c-.036-.0336.033-.1703.264-.4102.131-.1393.233-.2064.266-.2064l-.231.3405c-.167.209-.266.3122-.299.2761zm4.075.2348c-.098.1702-.197.2734-.266.2734-.033-.0335.033-.1367.2-.2734l.264-.2064v.067zm.464-.3432c-.099.1032-.233.1032-.134.0026v-.0671l.132-.0026c.101-.1031.101-.0361.002.0671zm.198-.2734-.066.0696-.066.0671c0-.0336.033-.1032.066-.1367.231-.24.296-.24.066 0zm.198-.1393v-.0671c-.102 0-.102-.0671 0-.0671h.065v.0671c.003.0335-.03.0671-.065.0671zm-1.214-1.6202.397-.2761c.267-.1032.297-.2399.53-.3457l.598-.276c.266-.0697.401-.1058.401-.0723 0 .1032-.066.2735-.198.4773-.099.2735-.162.3767-.395.6166-.165.3405-.33.5108-.462.5469-.164.1032-.266.2064-.263.2735l-.398.4102-.596.4825-.529.3431-.267.2064c-.233.1032-.233.1728-.466.276l-.398.2761c-.099.1032-.233.0361-.332.1393-.233.1032-.233.1032-.332.2064l-.466.209c-.134.0696-.2.0696-.2.0025-.033 0-.066-.0335-.069-.1341l.132-.2038c.066-.1703.231-.3767.53-.6166l.527-.6166c.132-.2374.233-.24.332-.3432l.263-.2734.267-.2735c.033-.0335.098-.0671.131-.0697l.201-.1367.463-.3431zm-2.994 1.388c-.233.1031-.233-.0336-.002-.1368.033-.0335.066-.0335.066 0l-.066.0671zm.132-.2735.033-.0336.099-.1728c.233-.1032.233-.1032.002.1367-.101.1032-.134.1032-.134.0697zm.33-.4102.065-.0671c.033 0 .066.0335.066.0671.003.1032-.033.1032-.066.067-.03 0-.065-.0335-.065-.067zm-2.185 1.922c1.351-2.0175 2.539-3.2868 3.505-3.7692l.332-.1393-.2.2063-.53.4799c-.165.0697-.263.1729-.263.2735h-.132c-.033.0361-.033.1032 0 .1341.101 0 .066.0336-.066.0697-.099.1032-.132.0361-.132.1367 0 .1032-.033.0336-.132.1367v-.0335c.033 0 .033 0 .066-.0361l-.002-.1342c-.234.0026-.464.3767-.462.6166-.101-.1006-.562.4464-1.323 1.37-.76.9236-1.188 1.5402-1.188 1.4396.096-.1342.162-.3715.527-.7508zm-.583 2.0459c.03-.1161.063-.1909.091-.2322.015-.0155.026-.0258.038-.0413.038-.0155.053.0594 0 .2038 0 .0232-.002.0568-.007.0955-.099.1135-.188.2038-.259.2451.043-.0826.086-.1729.137-.2709zm1.376 4.5406.066-.1367.2.0645c-.099.1032-.367.0722-.266.0722zm.363.1342c.017-.0052.055-.0232.104-.0723.167-.0025.233.0336.2.0671l-.266.0026c-.018 0-.028.0026-.038.0026zm.306.1315c-.164.1032-.23.1032-.132 0 .099-.1032.165-.1367.201-.1367.099.1006.03.0335-.069.1367zm.533-.2089c-.267.2399-.434.1393-.333.1393.099-.2374.165-.1032.398-.209l.132-.0696zm0-.2038c-.201.1393-.333.2064-.398.2064v-.0671c.098-.1032.565-.2761.664-.2787-.102.1032-.168.1368-.266.1394zm.468.1315c-.033 0-.035-.0335-.002-.067l-.069-.2039.066-.0696v.0671c.033 0 .102 0 .135-.0361l.19-.0439c.005-.0155.01-.0361.01-.0594-.066 0 0-.0335.2-.1393.233-.0025.2-.0361-.066.0671-.056.0594-.094.0981-.116.1238l.25-.0567c.165-.0697.267-.1058.267-.0697 0 .1729-.867.418-.865.4876zm.994-.6888c-.033.0335-.099.0335-.167.0361l.035-.0361c.099-.1032.165-.1367.2-.1367.031 0 .031.0335-.068.1367zm.93-.485c-.165.1367-.299.1728-.332.1393l-.066.0696c.033-.1702.165-.2734.398-.3431.101 0 .165-.0696.266-.0696zm.659-.9572-.266.2064c-.368.1058-1.095.6553-1.194.7585 0 .0336-.033.0671-.066.0671-.101-.1006-.2-.031-.2.0696h-.066c-.231.24-.895.6218-1.262.6244-.066 0-.2.0361-.398.1393l-.266.0697c0 .0335-.033.0335-.033 0-.035-.0336-.035-.0336-.035-.0671-.102 0 .532-.2761 1.33-.5573.101 0 .532-.2425.798-.3457.132-.1367 1.361-.8978 1.46-.8978l.201-.1032c.032-.0335.032-.0335.065-.0361zm.864-.4153c-.066.1367-.164.2038-.263.2064-.236-.1007-.137-.1007.129-.3406l.266-.1393zm1.194-.9649c-.099.0026-.101-.0336-.066-.0671 0-.1006.033-.1367.066-.1367h.066c0 .1032-.033.1702-.066.2038zm1.323-1.0294c0 .0335-.033.1032-.132.2038 0 .0284-.002.0361-.025.0593-.023-.0154-.041-.0515-.041-.1264.099-.1032.165-.1367.198-.1367zm.474.4695c-.101 0-.033.0362-.132.1368 0 .1032-.162.5443-.393.8204l-.129.3405c-.03.1703-.099.2735-.264.3432-.233.1393-.23.2399-.332.3431-.096.2735.038.307-.197.4102-.099.1032.03-.2709.654-1.6382.073-.1265.142-.24.202-.3432.246-.2193.484-.4566.728-.7301.033.1316-.018.2425-.137.3173zm2.821-5.4642c0-.1342.033-.2038.132-.2038.233-.1032.167-.0361-.066.2038-.099.1032-.165.1058-.066 0zm-.198.2064.2-.0026c0 .1032-.164.2399-.266.1393-.101.1032-.068 0 .066-.1367zm-.198.3431c.033 0 .066-.0361.099-.0361s.033 0 .033-.0335h.066c.101.1006-.033.2038-.266.2063-.03 0-.03-.0335.068-.1367zm-.856 1.3674c.099-.1032.164-.307.395-.547.099-.307.231-.5108.33-.614h.065c0 .1006-.032.1703-.131.2735l-.13.4076-.197.3406c-.064.307-.165.4076-.332.3431-.066 0-.066-.0671 0-.2038zm-.064.3405c.102-.0026-.096.5779-.192.6811-.084.0852-.117.1445-.127.1832-.028.0206-.058.0464-.094.0748-.017-.0077-.03 0-.038.031-.076.0645-.164.1393-.258.2218.208-.3405.532-1.1893.709-1.1919zm-.552 1.3235c-.038.1006-.086.2141-.137.3302-.18.0207-.147-.0851.137-.3302zm-.73 1.0268c.018-.0232.038-.049.056-.08-.026.0723-.016.1135-.056.08zm.051.3767c.017-.0207.035-.0413.055-.0645-.002.0645-.017.0851-.055.0645zm.058-.5521c.018-.0361.035-.0774.056-.1264 0-.0516.005-.1007.01-.1445.02-.0181.038-.0335.053-.0439 0 .1239-.03.2193-.119.3148zm.271-.0774c-.175.1677-.16.0645.051-.1883.03-.031.056-.0542.078-.0775-.04.0955-.086.1858-.129.2658zm2.322-.2761c-.099.2064-.132.24-.132.0697 0-.1367.066-.2038.198-.2064.086 0 .134-.0155.149-.0206-.02.0077-.091.0438-.215.1573zm1.191-1.099-.132.0696-.266.2064c-.051.0207-.094.0439-.132.0645.053-.0567.104-.1161.129-.1986l.264-.2735c.233-.1058.269-.0052.137.1316zm.53-.4128-.066.0671c0 .0335-.033.0671-.066.0696-.132.1368-.2.0697-.203-.2012.096-.2373.365-.3096.466-.209.102.1007-.131.1729-.131.2735zm.664-.5495c-.102.1032-.201.1393-.267.0696l.132-.1367v.0671h.066l.132-.1368c.266-.2399.299-.2399-.063.1368zm.595-.6166c-.028.0077-.048.0155-.066.0206v-.0206l.198-.2735c.231-.0026.132-.0026-.132.2735zm.662-.6863c-.135 0-.201-.0309-.201-.067l.132-.0697c.233-.1032.168.0335.069.1367zm.74.7405c-.132.1367-.2-.0336-.206-.5418.033-.0336.102-.0697.135-.0697-.099.3741.17.6089.071.6115zm.377-2.4484v.0671c-.033 0-.066.0335-.066.0671 0 .0671.003.1032-.032.1367l-.097.3406c-.099.2399-.233.1728-.132.0696l.193-.7481c.132-.1394.198-.1394.2-.0026-.033 0-.066.0335-.066.0696zm.786-1.7079-.198.2735c-.098.1032-.164.307-.063.4076h-.066l-.066.0671c0 .0335.033.0671.066.0671.018 0 .028-.0026.033-.0026-.013.0052-.033.0232-.033.0722-.033.0336-.066.1032-.066.1368l-.033.0335-.033-.0335v-.0671c-.131.1393-.197.3096-.195.4773-.101 0-.2.1703-.2-.0645.294-.7172.558-1.161.788-1.3674l.198-.2064zm-36.747 11.2846c-.096.6475-.028.7146.068.2038l.259-1.0217c.129-.4076.162-.6475.127-.6811 0 .0336 0 .0336-.033.0671l-.099.2064c-.066.1703-.099.2373-.132.2038-.033 0-.033 0-.033.0335-.033.0336-.033.0671-.033.1703l.003.2709c-.099-.1006-.031.1393-.127.547zm1.178-2.5929c0-.1032-.035-.1006-.065-.067-.033.0335-.066.1032-.066.1367h.066c.032-.0026.065-.0361.065-.0697z" fill="#010101"/></svg>