<svg fill="none" height="51" viewBox="0 0 51 51" width="51" xmlns="http://www.w3.org/2000/svg"><g fill="currentColor"><path d="m20.501 41.5748c-.2148-.0477-.4295-.0239-.6205.0955-.1909.1193-.3102.3102-.3818.5489-.0716.2625-.0478.4773.0477.6682.0955.191.2625.3342.4773.3819s.4296.0239.6205-.0955c.191-.1193.3103-.3102.3819-.5489.0716-.2386.0477-.4773-.0477-.6682-.0955-.2148-.2626-.3342-.4774-.3819z"/><path d="m16.1095 39.7611-.1432-.0716-.4058.6921.1432.0716c.1432.0954.2864.1193.3819.1193s.1909-.0716.2387-.1909c.0716-.1432.0954-.2387.0716-.3342-.0239-.0954-.1194-.1909-.2864-.2863z"/><path d="m36.2534 31.4555c-2.2434 3.8902-6.4439 6.5155-11.2649 6.5155-3.7947 0-7.2076-1.6229-9.5942-4.2244-.2387.0716-.4774.1671-.6922.2387-.3818.1432-.6921.1909-.9785.2148h-.0239c-.2864 0-.5728-.0477-.8353-.1671-2.0525-.8353-3.93793-1.241-5.72791-1.2171-.07159 0-.14319 0-.21479 0-1.09785.0238-2.05251.2148-2.81623.4296 3.29355 8.3293 11.38423 14.2004 20.88303 14.2004 11.2888 0 20.6205-8.3293 22.2196-19.1647-1.5036 1.4798-4.5346 2.9833-10.5967 3.1743-.1193 0-.2386 0-.358 0zm-22.5298 6.611c-.0477.1432-.1432.2625-.2625.4057-.1194.1432-.2626.2386-.3819.2864-.1432.0716-.2864.0954-.4296.0716-.1193 0-.2148-.0478-.3102-.0955-.0955-.0477-.2387-.1671-.4296-.358l-.0955-.0955-.1193-.0954-.6922.7398-.5727-.525 2.0763-2.2196.6205.5967c.2387.2386.4058.4057.4774.525.0716.1194.1193.2387.1432.358.0477.1194.0238.2626-.0239.4058zm3.389 2.6253c-.1193.2147-.2625.3341-.4296.4057-.167.0716-.358.0716-.5728 0l.1194 1.4797-.8115-.4535-.0238-1.3842-.5967 1.0262-.6683-.3818 1.5036-2.6253.7399.4296c.2864.167.5012.3102.5966.3818.0955.0955.1671.191.2148.3103.0478.1193.0716.2625.0716.4057-.0238.1194-.0716.2626-.1432.4058zm4.7256 2.1479c-.0478.2148-.1432.4058-.2626.5728-.1193.1671-.2864.3103-.4773.4057-.1909.0955-.3819.1671-.5967.191-.2147.0238-.4295.0238-.6205-.0478-.2148-.0477-.4057-.1432-.5728-.2864-.167-.1193-.3102-.2864-.4296-.4773-.1193-.1909-.1909-.3818-.2148-.5966-.0238-.2148-.0238-.4058.0478-.6206.0477-.2148.1432-.4057.2625-.5728.1193-.167.2864-.3102.4773-.4057.191-.0954.3819-.167.5967-.1909s.4296-.0239.6444.0477c.2148.0477.4057.1432.5728.2864.167.1193.3102.2864.4296.4773.1193.191.167.3819.2148.5728 0 .2148-.0239.4296-.0716.6444zm4.821.8831c-.0955.2148-.2387.3818-.4296.525-.1432.0955-.3103.191-.5012.2387-.191.0477-.4773.0716-.8831.0716h-.1432l-.6205.0239-.0477-3.0311h.6205c.4773 0 .8114 0 1.0024.0478.1909.0477.358.1193.525.2148.191.1193.3342.3102.4535.5012.0955.2148.1671.4534.1671.716 0 .2386-.0478.4773-.1432.6921zm5.0119-.5967c-.0716.1432-.1671.2864-.3341.3819-.1671.1193-.358.1909-.5967.2864-.2387.0716-.4773.0954-.6682.0954-.191 0-.358-.0477-.4774-.1432-.1193-.0716-.2148-.1909-.3102-.3341-.0955-.1432-.1671-.358-.2626-.6921l-.0954-.3103-.358-1.241.7876-.2387.4296 1.4081c.0716.2148.1193.358.1432.4535.0477.0955.0716.1671.1193.2148.0477.0716.1193.0955.2148.1193.0955.0239.1909 0 .2864-.0238.1193-.0239.1909-.0716.2625-.1432s.0955-.1432.1193-.2148c0-.0716 0-.1432-.0238-.2387-.0239-.0955-.0478-.2387-.1194-.4535l-.0477-.1909-.358-1.2172.7876-.2386.4535 1.5274c.0954.3103.1432.5489.1432.716 0 .2148-.0239.358-.0955.4773zm4.3914-1.8377c-.0955.0955-.1909.1671-.3103.2387-.1432.0954-.2864.1432-.4295.1909-.1432.0477-.2864.0477-.4296.0477-.2626-.0238-.5251-.0954-.7399-.2148-.2148-.1432-.4057-.3341-.5489-.5728-.1194-.1909-.191-.4057-.2387-.5966-.0239-.1909-.0239-.4057.0239-.6205.0477-.191.1193-.3819.2386-.5251.1194-.1671.2626-.2864.4535-.4057.1193-.0716.2387-.1194.358-.1671s.2625-.0716.4057-.0716l.4535.7637c-.1671-.0477-.3103-.0716-.4296-.0716s-.2387.0478-.358.1194c-.2148.1193-.3341.2864-.358.5012-.0477.2148 0 .4296.1432.6682.1193.2148.2864.3341.5012.4057s.4057.0239.6205-.0954c.1193-.0716.1909-.1432.2625-.2625.0716-.1194.1194-.2387.1432-.4058l.4774.7876c-.0716.0955-.1432.1909-.2387.2864zm2.0764-4.7971-.5012.4773 1.599 1.6706-.5966.5728-1.5991-1.6706-.5012.4773-.5012-.525 1.5752-1.5036z"/><path d="m7.03961 29.5947c-1.40812-.3341-2.29117-1.4081-2.4105-3.0549-.02387-.3818-.02387-.8114.02386-1.2888-.88305-.3818-1.59904-.9785-2.0525-1.7422-.02387.5012-.04774.9785-.04774 1.4797 0 2.0048.26253 3.938.76373 5.7757.95465-.4535 2.1957-.8592 3.72315-1.1695z"/><path d="m25.0123 42.1953h-.1432l.0239 1.6707h.1432c.3341 0 .5489-.0716.716-.2148.1432-.1432.2148-.358.2148-.6444s-.0955-.5012-.2387-.6444c-.167-.1194-.4057-.1671-.716-.1671z"/><path d="m5.05998 18.3775.83533 1.0263c.16706.1909.23866.4534.19093.716-.04774.2386-.19093.4534-.40573.5966-.09547.0716-.64439.4058-.59666 1.0501 0 .1194.09546.358.26253.549.95465-2.5537 2.79236-5.2029 5.29832-5.2506 1.3365-.0239 2.3866.716 2.8162 1.9093 2.1719-4.1289 6.4917-6.9451 11.4798-6.9451 5.6085 0 10.3818 3.5561 12.1957 8.5203h.0238l1.6707-.0239c.3102 0 .5966.1432.7637.3819.1671.2386.1909.5728.0477.8353l-.4296.9308c.8592-1.2888 2.1957-2.3867 3.9141-2.4105 1.0263-.0239 1.8855.3818 2.315 1.0978.2148.358.5251.6444.5967 1.9332.2387-.1432.6205-.1671.7637-.1671.1671 0 .3342.0478.5012.0955-.883-11.5752-10.5728-20.69213-22.3866-20.69213-10.0955 0-18.61577 6.65871-21.45586 15.82343.11933-.0955.23866-.1671.35799-.2387.45346-.2148.95466-.0955 1.24105.2625zm33.26972-7.1837 1.2888 1.3365-.4774.4534-.7398-.7637-.3819.358.6921.716-.4773.4535-.6921-.716-.358.358.7399.7637-.4774.4773-1.2888-1.3365zm-4.7494-3.3652.6921.40573.1909 1.93317v.2148c0 .1193-.0238.2387-.0238.3819.0477-.1194.0954-.2148.1432-.3103.0477-.0955.0954-.1671.1193-.2387l.7637-1.28875.6921.40573-1.5513 2.60142-.6921-.4057-.1909-1.93319c0-.04773 0-.11933 0-.2148 0-.11933.0238-.23866.0238-.38186-.0477.11933-.0954.2148-.1432.31027-.0477.09546-.0954.16706-.1193.23866l-.7637 1.28882-.6921-.4058zm-3.4606-1.24105.8114.23867-.8592 2.91169-.8114-.23866zm-5.537.88306.0238-.31027.0716-1.28878.8353.04773-.0716 1.47972c0 .21479-.0238.38186 0 .47732 0 .09547.0239.16707.0478.23867.0238.0716.0716.1432.167.19093.0716.04773.1671.0716.2864.0716.1194 0 .2148 0 .2864-.04773.0716-.04774.1432-.09547.1671-.16707s.0477-.1432.0716-.23866c.0239-.09547.0239-.23867.0477-.47733v-.2148l.0716-1.26491.8115.04773-.0716 1.59904c-.0239.33413-.0477.5728-.0955.73986-.0477.16707-.1193.2864-.2148.40573-.1193.11933-.2625.19093-.4296.26253-.1909.04773-.4057.0716-.6682.04773-.2626-.02386-.4774-.04773-.6444-.11933-.1671-.0716-.3103-.16706-.4057-.2864-.0955-.11933-.1432-.26253-.191-.40572-.0954-.2148-.1193-.45346-.0954-.78759zm-4.9404-.83533 1.4797 1.24105c.0239.02387.0716.0716.1432.16707.0716.0716.1432.16706.2387.2864-.0477-.11934-.0955-.2148-.1193-.31027-.0239-.09546-.0478-.16706-.0716-.23866l-.358-1.45585.7637-.19093.7637 2.93556-.7637.19093-1.4797-1.24105c-.0239-.02386-.0716-.0716-.1432-.16706-.0716-.0716-.1432-.16707-.2387-.2864.0478.11933.0955.2148.1194.31026.0238.09547.0477.16707.0716.26253l.3579 1.45585-.8114.19093-.7399-2.93556zm-3.3413 1.31265.3342.5728-.907.52506.2626.45346.8592-.5012.3102.57279-.8592.50116.2626.4535.9069-.5251.3341.5967-1.6229.9069-1.5036-2.64915zm-5.3938 4.08117c.0955-.191.2148-.358.3819-.5251.2148-.2148.4296-.358.6921-.4296.2387-.0716.5012-.0954.7876-.0238l-.2625.7398c-.1432-.0238-.2625-.0239-.3819.0239-.1193.0238-.2148.0954-.3102.1909-.1671.1671-.2626.3819-.2387.5967s.1193.4296.3341.6205c.2148.2148.4058.3103.6206.3341.2147.0239.4057-.0716.5966-.2386.1432-.1432.2387-.3103.2625-.4774.0239-.167-.0238-.3341-.1193-.4534l-.6205.5489-.4535-.4535 1.1456-1.1455c.0239.0238.0239.0238.0477.0477.0239.0239.0478.0477.0716.0716.358.3818.549.7637.5728 1.1456 0 .4057-.167.7637-.525 1.1217-.1671.1671-.358.3103-.549.3819-.1909.0715-.3818.1193-.5966.1193s-.4057-.0478-.5967-.1193c-.1909-.0955-.3818-.2148-.525-.358-.1671-.1671-.2864-.3342-.358-.5251s-.1194-.3819-.1194-.5967c.0239-.2148.0716-.4057.1432-.5966z"/><path d="m12.7685 37.2795-.1193-.1193-.4773.525.1193.1193c.1432.1432.2625.2148.358.2148.0955.0239.1909-.0238.2864-.1193s.1193-.1909.0955-.2864c-.0478-.0954-.1194-.2148-.2626-.3341z"/><path d="m25.0119 0c-13.7947 0-25.0119 11.2172-25.0119 25.0119 0 13.7948 11.2172 25.012 25.0119 25.012 13.7948 0 25.012-11.2172 25.012-25.012-.0239-13.7947-11.2411-25.0119-25.012-25.0119zm0 48.759c-10.0716 0-18.68732-6.3008-22.14794-15.179 0 0 0 0-.02386 0-.66826 0-1.16946-.4296-1.21719-1.0024-.02386-.3819.1432-.7638.5012-1.0263.02386-.0238.02386-.0238.04773-.0477-.59666-2.0764-.90692-4.2482-.90692-6.4917 0-13.1026 10.64438-23.74698 23.74698-23.74698 13.1027 0 23.7471 10.64438 23.7471 23.74698 0 13.0788-10.6683 23.7471-23.7471 23.7471z"/><path d="m25.0126 13.3408c-5.1074 0-9.4511 3.2936-11.0263 7.8521.4774-.2626 1.0263-.4058 1.6468-.4296 1.6229-3.58 5.2267-6.0621 9.3795-6.0621 4.1289 0 7.6849 2.4344 9.3317 5.9189.3103-.1194.6683-.191 1.0501-.2148.1194 0 .2387 0 .358.0238-1.7899-4.1766-5.9427-7.0883-10.7398-7.0883z"/><path d="m18.4014 32.8875c-.5251.1194-1.0502.2626-1.5752.4058 2.1002 2.0763 5.0119 3.3651 8.1861 3.3651 3.9618 0 7.4702-1.9809 9.5704-5.0119-.5012.3818-1.1455.6682-1.957.6682-.1432 0-.2625 0-.3819-.0238-1.8615 1.8377-4.4152 2.9833-7.2553 2.9833-2.506.0238-4.7972-.8831-6.5871-2.3867z"/><path d="m47.7795 24.9401c-.0955-.5728-.5012-.9069-1.2172-.883-.716.0238-1.2172.6205-1.5991 1.0978-.4773.5967-1.0978 1.1217-1.8138 1.4797-.4535.2148-.9547.3819-1.4558.3819-1.6946.0238-.9786-1.6468-.9786-1.6468 1.9571.1909 3.1027-.2864 3.8186-1.5752.8831-1.6229.0478-2.6253-1.3603-2.6014-1.8855.0239-3.2697 1.8138-3.8425 3.4129-.9785 1.4797-2.0048 2.2911-3.2458 2.8878l2.7923-6.062-1.6706.0238-.4058.8592c-.0954-.5012-.6443-1.0024-1.4558-1.0024-1.5274.0239-2.6253 1.8139-3.1742 3.389-.9785 1.5036-2.3389 2.4583-3.6038 2.4583-1.6707.0238-1.0263-1.6468-1.0263-1.6468 1.9332.1909 3.031-.2625 3.6754-1.5513.8115-1.5991-.0477-2.6014-1.432-2.5776-1.8377.0239-3.1265 1.79-3.6515 3.389-.8592 1.3843-1.8139 2.4344-2.4105 2.4583-.2625 0-.5012-.2148.0477-1.5513l2.7208-6.5394-1.6468.0238-2.2673 5.6564c-.8592 1.4081-1.79 2.4582-2.3866 2.4582-.2626 0-.5012-.2148.0238-1.5513l2.6253-6.5155-1.6229.0238-2.2195 5.6086c-.6206 1.0024-1.3366 1.4082-1.981 1.3843.4774-.9069.716-1.9571.6922-2.673-.0478-1.265-.8592-1.9094-2.0287-1.8855-1.8377.0239-2.9594 1.7661-3.3651 3.2936-1.0979 1.8854-2.81626 2.8639-3.98571 2.8639-.97852 0-1.26491-.6205-1.28878-1.2887-.02387-.4296 0-1.0263.16706-1.623h.1432c1.76611-.0238 3.07873-.6682 3.96183-1.4558 1.1694-1.0501 1.599-2.3628 1.5513-3.389-.0477-1.1456-.7637-2.1241-2.1002-2.1003-2.24348.0478-4.05732 2.9356-4.82104 5.6086-1.07399-.2625-1.62291-1.1694-1.67065-1.79-.0716-1.1455.81146-1.7183.97852-1.8377l-.83532-1.0262c-.88305.525-1.57518 1.5752-1.47971 2.8401.09546 1.2649.93079 2.4821 2.72076 2.9594-.11933.6683-.16706 1.2888-.11933 1.8139.09547 1.2887.71599 2.3627 2.52983 2.3389 1.62291-.0239 3.00714-.9547 4.10504-2.3389.1193 1.1455.9069 1.7422 2.0047 1.7422 1.0024 0 1.8139-.5489 2.3867-1.2888.716.1193 1.3842-.0716 1.9332-.4534-.191 1.241.4534 1.6706 1.2887 1.6706.8115 0 1.5514-.5251 2.2435-1.2888 0 .9069.5728 1.2411 1.3126 1.2411.9785 0 1.8616-.716 2.6492-1.7423.0955 1.0979.8592 1.6945 2.2434 1.6707 1.5036-.0239 2.6969-.7399 3.58-1.6707v.191c0 .7875.4534 1.4319 1.3126 1.4319.9308 0 1.5036-.8592 1.5036-.8592l-.4057.8831c-.2864.1671-1.0501.4535-1.5275.6444-.716.3103-1.4319.8114-1.4797 1.5752-.0238.6682.4774 1.1933 1.432 1.1933 1.3843-.0239 2.0764-1.0979 2.6253-2.2196.1671-.3818.358-.7876.358-.7876 1.0501-.4534 2.2434-1.0262 3.389-2.2911.0239 1.1455.7876 1.7899 2.2435 1.7661.7159 0 1.4081-.191 2.0525-.5012.6205-.2864 1.1455-.716 1.6229-1.1695.2148-.2148.4296-.4534.6205-.6682.0955-.1194.1909-.2387.2625-.358.0716-.0955.1432-.2387.2626-.2626.167-.0238.2864.1194.3102.2387.0239.1193-.0238.2864-.0716.5012-.4534 1.432-1.5274 3.3174-8.568 3.5322-.5728.0239-1.1694.0239-1.7661.0477-.0239.0716-.0477.1194-.0955.191-.1432.2864-.3341.6921-.6444 1.1217.4296 0 .8831-.0239 1.3366-.0477 6.7064-.191 10.3579-2.1719 11.0978-4.7017.0955-.3341.1432-.6444.0955-.9308zm-4.7733-2.4821c.4535 0 .4535.3341.1193 1.0024-.358.6682-.8592 1.2649-2.1241 1.0978 0-.0238.8831-2.1002 2.0048-2.1002zm-13.2936.1909c.4535 0 .4535.3342.1432 1.0024-.3102.6683-.7875 1.2649-2.0286 1.074 0 0 .7876-2.0525 1.8854-2.0764zm-19.1646-3.1981c.4534 0 .6682.3342.6921.7876.0239.6206-.2864 1.5275-1.0501 2.2673-.64442.6444-1.55134 1.0979-2.69693 1.1695.71599-2.0525 1.98091-4.2005 3.05493-4.2244zm5.2983 5.6086c-.5251-.0477-.9547.358-.9308.8354 0 .2386.1193.4296.2864.5728-.3341.4773-.6921.8353-1.074.8353-.3341 0-.5489-.2626-.5728-.6921-.0477-1.0502 1.0024-3.938 2.1241-3.938.2864 0 .5251.1909.549.6921 0 .3819-.1432 1.0501-.3819 1.6945zm16.5871 5.4893c-.2148 0-.3819-.1193-.3819-.3103 0-.2625.3103-.5012.6206-.6682.358-.2148.6921-.3103 1.074-.5012-.4535 1.1456-.9786 1.4797-1.3127 1.4797zm2.8162-4.7733s-.716 1.0501-1.4797 1.074c-.2864 0-.4296-.1432-.4296-.4773 0-.9069 1.1456-3.747 2.3389-3.747.6444 0 .6206.8114.6206.8114z"/><path d="m13.1984 33.2939c.1432.0716.3103.0954.4773.0954.191 0 .4296-.0715.6922-.167 5.2506-1.9093 10.0716-2.2434 15.8711-2.4105h.0239c-.0239-.1432-.0478-.2864-.0478-.4296.0239-.2864.1194-.5728.2864-.8353-5.9666.0477-12.4344 0-14.9881.0954-7.04052.2387-11.00234 1.074-12.81618 2.5537-.16707.1194-.2148.2864-.2148.3819 0 .1193.09547.1909.2864.1909.0716 0 .1432 0 .23866-.0477 1.05012-.358 2.31504-.6921 3.86635-.7399 1.69451-.0477 3.77087.2626 6.32457 1.3127z"/></g></svg>