<svg fill="none" height="21" viewBox="0 0 20 21" width="20" xmlns="http://www.w3.org/2000/svg"><g fill="currentColor"><path d="m10 1.81354c2.67 0 2.9862.01 4.041.05809.6341.00776 1.2623.1242 1.8571.34427.4313.16635.8231.42117 1.15.74806s.5817.71861.7481 1.14994c.2201.59479.3365 1.22291.3443 1.85706.0476 1.05471.0581 1.37089.0581 4.04074 0 2.6699-.01 2.9861-.0581 4.0408-.0078.6341-.1242 1.2622-.3443 1.857-.1664.4314-.4212.8231-.7481 1.15s-.7187.5817-1.15.748c-.5948.2201-1.223.3365-1.8571.3443-1.0543.0476-1.3705.0581-4.041.0581-2.67048 0-2.98667-.01-4.04095-.0581-.63418-.0078-1.26233-.1242-1.85715-.3443-.43135-.1663-.82309-.4211-1.14999-.748-.32691-.3269-.58175-.7186-.7481-1.15-.22008-.5948-.33653-1.2229-.34429-1.857-.04762-1.0547-.05809-1.3709-.05809-4.0408 0-2.66985.01-2.98603.05809-4.04074.00776-.63415.12421-1.26227.34429-1.85706.16635-.43133.42119-.82305.7481-1.14994.3269-.32689.71864-.58171 1.14999-.74806.59482-.22007 1.22297-.33651 1.85715-.34427 1.05476-.04762 1.37095-.05809 4.04095-.05809zm0-1.8018212c-2.71429 0-3.05619.0114279-4.12286.0599971-.82997.0165077-1.65114.1736491-2.42857.4647401-.66691.251257-1.27095.645004-1.77 1.153754-.50924.4992-.903335 1.10357-1.154761 1.77087-.291104.77739-.4482528 1.59852-.4647613 2.42845-.0476191 1.06567-.0590477 1.40756-.0590477 4.12167 0 2.7142.0114285 3.0561.06 4.1227.0165085.8299.173657 1.6511.464762 2.4285.251147.6672.644918 1.2715 1.153808 1.7708.49932.5089 1.10371.9026 1.77095 1.1538.77743.2911 1.5986.4482 2.42858.4647 1.06666.0476 1.40714.06 4.1229.06 2.7157 0 3.0561-.0114 4.1228-.06.83-.0165 1.6512-.1736 2.4286-.4647.6641-.2574 1.2671-.6506 1.7706-1.1543.5034-.5038.8962-1.1071 1.1532-1.7713.2911-.7774.4482-1.5985.4648-2.4284.0476-1.0657.059-1.4076.059-4.1218 0-2.71411-.0114-3.056-.06-4.12262-.0165-.82994-.1737-1.65106-.4648-2.42845-.2511-.66722-.6449-1.27158-1.1538-1.77087-.4993-.50887-1.1037-.902622-1.7709-1.153757-.7775-.29109-1.5986-.4482317-2.4286-.4647394-1.0657-.0476168-1.4076-.0590448-4.1219-.0590448z"/><path d="m10.0005 4.87598c-1.01568 0-2.00853.30116-2.85301.8654-.84449.56424-1.50268 1.36622-1.89136 2.30451-.38867.9383-.49037 1.97081-.29222 2.96691.19814.996.68723 1.911 1.4054 2.6292.71818.7181 1.63319 1.2072 2.62933 1.4053s2.02866.0964 2.96696-.2922c.9384-.3887 1.7404-1.0468 2.3047-1.8913.5642-.8444.8654-1.8372.8654-2.8528 0-1.36191-.541-2.66802-1.5041-3.63102-.963-.963-2.2692-1.504-3.6311-1.504zm0 8.46812c-.6593 0-1.30376-.1954-1.85193-.5617-.54816-.3662-.9754-.8868-1.22769-1.4959-.2523-.609-.31831-1.2792-.18969-1.9258.12862-.64657.44609-1.24049.91226-1.70664.46618-.46615 1.06012-.78361 1.70672-.91222.64661-.12861 1.31683-.0626 1.92593.18968s1.1297.6795 1.4959 1.22764c.3663.54814.5618 1.19257.5618 1.85184 0 .884-.3512 1.7318-.9763 2.3569s-1.473.9762-2.357.9762z"/><path d="m15.3387 5.87352c.6627 0 1.2-.53723 1.2-1.19994s-.5373-1.19995-1.2-1.19995c-.6628 0-1.2.53724-1.2 1.19995s.5372 1.19994 1.2 1.19994z"/></g></svg>