<svg fill="none" height="21" viewBox="0 0 20 21" width="20" xmlns="http://www.w3.org/2000/svg"><path clip-rule="evenodd" d="m20 10.5c0 5.52-4.48 10-10 10s-10-4.48-10-10 4.48-10 10-10 10 4.48 10 10zm-15.05958.3401.04-.06 2.6-4.05996c.04-.06.12-.06.16.02.44.98.8 2.18.64 2.94-.08.31996-.28.73996-.52 1.11996-.02.06-.06.12-.1.16-.02.02-.04.04-.08.04h-2.68c-.06-.02-.1-.1-.06-.16zm11.57928 1.3995v-.64c0-.06-.04-.1-.16-.04l-3.04.88c-.02 0-.02 0-.04.02-.2569.272-.4795.4755-.5989.5846-.0386.0353-.0664.0608-.0811.0754-.18.16-.42.24-.66.24h-1.1v-1.12h.88c.02 0 .04 0 .06-.02l.12-.1c.06-.04.12-.1.18-.16.041-.0273.0727-.064.1014-.0972.0133-.0154.0259-.0301.0386-.0428.041-.0273.0727-.064.1014-.0972.0133-.0154.0259-.0301.0386-.0428.03-.04.065-.08.1-.12s.07-.08.1-.12c.06-.06.1-.12.14-.18.02-.03.045-.06.07-.09s.05-.06.07-.09c.014-.0421.0379-.0743.0647-.1105.0114-.0154.0233-.0316.0353-.0495.04-.06.08-.12.1-.16.08-.14.16-.28.22-.42.0305-.0611.0494-.1222.0656-.1744.0049-.0161.0097-.0314.0144-.0456.01-.04.02-.075.03-.11.01-.03497.02-.06997.03-.10997.001-.00905.002-.01805.003-.02701.0189-.16913.036-.32204.017-.49299 0-.06 0-.12-.02-.16 0-.02 0-.06-.02-.1-.02-.18-.08-.34-.16-.5-.01-.03-.025-.06-.04-.09s-.03-.06-.04-.09c-.04-.06-.075-.12-.11-.18s-.07-.12-.11-.18c-.0126-.03766-.033-.06744-.0514-.09429-.011-.01592-.0212-.03082-.0286-.04571-.03-.04-.065-.08501-.1-.13002-.035-.04499-.07-.08998-.1-.12998-.03-.03-.055-.065-.08-.1s-.05-.07-.08-.1-.055-.06-.08-.09-.05-.06-.08-.09c-.2-.22-.4-.42-.58-.58-.0129-.02583-.0342-.04332-.0584-.06324-.0133-.01093-.0274-.02259-.0416-.03676v-.00001c-.14-.12-.28-.23999-.38-.31999-.06-.03999-.1-.07999-.14-.11998v-.00002c-.06-.04-.1-.08-.12-.1 0-.02-.02-.02-.02-.02l-.12-.04v-.96c0-.16-.06-.3-.16-.4s-.24-.16-.4-.16c-.30001 0-.56001.26-.56001.58v.66l-.06-.02-.16-.04-.14-.04-1.1-.3c-.04-.02-.08.04-.06.08l.18.32.06.12c.01.03.025.06.04.09s.03.06.04.09.025.055.04.08.03.05.04.08c.06.12.12.26.18.4l.12.3c.1.24.2.52.28.8.03351.06702.05298.14808.07018.21965.00333.01386.00657.02737.00982.04035l.02.04c.04.14.06.26.08.4.02.08.04.18.04.26 0 .05.005.1.01.15s.01.1.01.15c.02.1.02.2.02.28 0 .24-.02.46-.06.66l-.06.17997c-.00745.0224-.01767.0475-.02859.0743-.01842.0453-.03886.0955-.05141.1457-.02.06-.04.1-.06.14-.1.24-.22.5-.36.72-.2.34-.38.62-.52.82-.02.04-.04.06-.06.08-.04.06 0 .14.08.14h1.42v1.12h-1.44c-.38 0-.74-.2-.92-.56-.08-.18-.12-.38-.1-.56 0-.04-.04-.1-.1-.1h-2.94c-.04 0-.08.04-.08.08v.06c0 1.86 1.5 3.36 3.34 3.36h5.22001c.9644 0 1.5175-.8832 2.0639-1.7556.1561-.2493.3116-.4977.4761-.7244.28-.4.98-.72 1.18-.8.04-.02.06-.04.06-.08z" fill="currentColor" fill-rule="currentColor"/></svg>