<svg fill="none" height="51" viewBox="0 0 51 51" width="51" xmlns="http://www.w3.org/2000/svg"><g fill="#fff"><path d="m8.49062 23.1396c2.13998 0 3.69998.47 5.19998 1.31l-1.44 2.83c-.87-.52-2.43998-1.1-3.87998-1.1-.92 0-1.44.21-1.44.67 0 .34.33.59.98.74l1.75.36c2.21998.47 4.09998 1.18 4.09998 3.52 0 2.68-2.31 4.0201-5.17998 4.0201-2.53 0-4.36999-.7201-5.69-1.7001l1.68001-2.76c1 .74 2.57999 1.39 4.11999 1.39.96 0 1.54998-.16 1.54998-.67s-.64998-.75-1.76998-1l-1.34-.28c-1.86-.39-3.71-1.29-3.71-3.55.01-2.57 2.53-3.78 5.07-3.78z"/><path d="m18.711 35.2699h-3.42v-11.85h3.42z"/><path d="m23.7398 29.3199-4.02-5.9h4.04l2.01 2.98 2.08-2.98h3.86l-4.02 5.77 4.15 6.08h-4.04l-2.16-3.16-2.19 3.16h-3.86z"/><path d="m41.5513 26.5196c0 2.32-1.98 4.0601-5.12 5.9701h5.07v2.7799h-9.45v-2.58c1.83-1.31 6.18-4.02 6.18-5.94 0-.83-.69-1.19-1.42-1.19-1 0-1.67.69-1.67 2.14h-3.1101c.0501-2.94 1.8201-4.56 5.0401-4.56 2.47 0 4.48 1.03 4.48 3.38z"/><path d="m44.8407 35.2692v-7.72h-2.62v-2.39c2.09-.05 2.83-.56 3.32-1.75h2.57v11.86z"/><path d="m5.28969 15.5195h1.26c1.18 0 1.7.19 1.7 1.09 0 .61-.3 1.11-1 1.36.44.14.71.45.71.98 0 1.4-.99 1.79-2.17 1.79h-1.61zm.62 4.45c.64 0 .9-.43.9-.97 0-.4-.14-.61-.66-.61h-.33l-.33 1.58zm.4-2.28c.58 0 .86-.39.86-.87 0-.37-.12-.54-.61-.54h-.3l-.3 1.41z"/><path d="m11.9606 18.6298c-.37 1.73-.72 2.2-2.16998 2.2-1.03 0-1.4-.25-1.4-1.01 0-.31.06001-.7.17001-1.2l.65999-3.11h1.14998l-.66998 3.16c-.09.41-.15.72-.15.94 0 .28.1.42.41.42.54998 0 .65998-.44.85998-1.36l.67-3.16h1.15z"/><path d="m13.3287 15.5195h1.15l-1.11 5.22h-1.1499z"/><path d="m15.2504 15.5195h1.15l-.93 4.39h1.73l-.18.84h-2.87z"/><path d="m18.6305 16.3498h-1.07l.18-.84h3.28l-.18.84h-1.07l-.93 4.39h-1.14z"/><path d="m22.7897 15.5195h1.26c1.18 0 1.7.19 1.7 1.09 0 .61-.3 1.11-1 1.36.44.14.71.45.71.98 0 1.4-.99 1.79-2.17 1.79h-1.61zm.62 4.45c.64 0 .9-.43.9-.97 0-.4-.14-.61-.66-.61h-.33l-.33 1.58zm.4-2.28c.58 0 .86-.39.86-.87 0-.37-.12-.54-.61-.54h-.3l-.3 1.41z"/><path d="m27.0306 18.5595-.64-3.04h1.03l.33 2.03 1.21-2.03h1.18l-1.97 3.05-.46 2.17h-1.15z"/></g></svg>