<svg fill="none" height="18" viewBox="0 0 20 18" width="20" xmlns="http://www.w3.org/2000/svg"><path d="m20 2.75c-.75.375-1.5.5-2.375.625.875-.5 1.5-1.25 1.75-2.25-.75.5-1.625.75-2.625 1-.75-.75-1.875-1.25-3-1.25-2.125 0-4 1.875-4 4.125 0 .375 0 .625.125.875-3.375-.125-6.5-1.75-8.5-4.25-.375.625-.5 1.25-.5 2.125 0 1.375.75 2.625 1.875 3.375-.625 0-1.25-.25-1.875-.5 0 2 1.375 3.625 3.25 4-.375.125-.75.125-1.125.125-.25 0-.5 0-.75-.125.5 1.625 2 2.875 3.875 2.875-1.375 1.125-3.125 1.75-5.125 1.75-.375 0-.625 0-1 0 1.875 1.125 4 1.875 6.25 1.875 7.5 0 11.625-6.25 11.625-11.625 0-.125 0-.375 0-.5.875-.625 1.625-1.375 2.125-2.25z" fill="currentColor"/></svg>